<svg width="73" height="74" viewBox="0 0 73 74" fill="none" xmlns="http://www.w3.org/2000/svg">
<rect y="0.578125" width="73" height="73" rx="20" fill="#212674"/>
<path d="M51.5659 49.4359L47.3209 45.2059C49.6221 42.3629 50.7447 38.7452 50.4572 35.0989C50.1697 31.4525 48.4939 28.0555 45.7755 25.6083C43.0571 23.1612 39.5033 21.8504 35.8469 21.9463C32.1905 22.0423 28.7103 23.5376 26.1239 26.1239C23.5376 28.7103 22.0423 32.1905 21.9463 35.8469C21.8504 39.5033 23.1612 43.0571 25.6083 45.7755C28.0555 48.4939 31.4525 50.1697 35.0989 50.4572C38.7452 50.7447 42.3629 49.6221 45.2059 47.3209L49.4359 51.5659C49.5753 51.7065 49.7412 51.8181 49.924 51.8942C50.1068 51.9704 50.3028 52.0096 50.5009 52.0096C50.6989 52.0096 50.8949 51.9704 51.0777 51.8942C51.2605 51.8181 51.4264 51.7065 51.5659 51.5659C51.7065 51.4264 51.8181 51.2605 51.8942 51.0777C51.9704 50.8949 52.0096 50.6989 52.0096 50.5009C52.0096 50.3028 51.9704 50.1068 51.8942 49.924C51.8181 49.7412 51.7065 49.5753 51.5659 49.4359ZM25.0009 36.2509C25.0009 34.0258 25.6607 31.8508 26.8968 30.0007C28.133 28.1506 29.89 26.7087 31.9457 25.8572C34.0013 25.0057 36.2633 24.7829 38.4456 25.217C40.6279 25.6511 42.6325 26.7226 44.2058 28.2959C45.7792 29.8693 46.8506 31.8738 47.2847 34.0561C47.7188 36.2384 47.496 38.5004 46.6445 40.5561C45.793 42.6117 44.3511 44.3687 42.501 45.6049C40.651 46.8411 38.4759 47.5009 36.2509 47.5009C33.2672 47.5009 30.4057 46.3156 28.2959 44.2058C26.1861 42.096 25.0009 39.2346 25.0009 36.2509Z" fill="white"/>
</svg>
