<svg width="42" height="26" viewBox="0 0 42 26" fill="none" xmlns="http://www.w3.org/2000/svg">
<rect x="0.269231" y="0.269231" width="41.4615" height="25.4615" fill="white"/>
<rect x="0.269231" y="0.269231" width="41.4615" height="25.4615" stroke="#DCDCDC" stroke-width="0.538462"/>
<g clip-path="url(#clip0_209_67)">
<path d="M31.2917 4.33398H10.7083C9.2155 4.33398 8 5.54948 8 7.04235V18.959C8 20.4519 9.2155 21.6674 10.7083 21.6674H31.2916C32.7844 21.6674 33.9999 20.4519 33.9999 18.959V7.04235C34 5.54948 32.7845 4.33398 31.2917 4.33398ZM32.9167 18.959C32.9167 19.8549 32.1876 20.584 31.2917 20.584H10.7083C9.81238 20.584 9.08332 19.8549 9.08332 18.959V7.04235C9.08332 6.14642 9.81238 5.41735 10.7083 5.41735H31.2916C32.1876 5.41735 32.9166 6.14642 32.9166 7.04235V18.959H32.9167Z" fill="#747073"/>
<path d="M33.4583 7.58398H8.54168C8.24268 7.58398 8 7.82667 8 8.12567V11.3757C8 11.6747 8.24268 11.9174 8.54168 11.9174H33.4584C33.7574 11.9174 34 11.6747 34 11.3757V8.12567C34 7.82667 33.7573 7.58398 33.4583 7.58398ZM32.9167 10.834H9.08332V8.6673H32.9166V10.834H32.9167ZM16.125 15.1674H11.7917C11.4927 15.1674 11.25 15.41 11.25 15.709C11.25 16.008 11.4927 16.2507 11.7917 16.2507H16.125C16.424 16.2507 16.6667 16.008 16.6667 15.709C16.6667 15.41 16.424 15.1674 16.125 15.1674ZM19.375 17.334H11.7917C11.4927 17.334 11.25 17.5767 11.25 17.8757C11.25 18.1747 11.4927 18.4174 11.7917 18.4174H19.375C19.674 18.4174 19.9167 18.1747 19.9167 17.8757C19.9167 17.5767 19.674 17.334 19.375 17.334Z" fill="#747073"/>
</g>
<defs>
<clipPath id="clip0_209_67">
<rect width="26" height="26" fill="white" transform="translate(8)"/>
</clipPath>
</defs>
</svg>
