<svg width="53" height="42" viewBox="0 0 53 42" fill="none" xmlns="http://www.w3.org/2000/svg">
<path opacity="0.06" d="M0 42V28.1944C0 22.8796 0.850618 17.9537 2.55185 13.4167C4.38395 8.87963 7.45926 4.4074 11.7778 0L19.4333 5.63889C16.0309 9.39814 13.6753 12.8333 12.3667 15.9444C11.1889 18.9259 10.6 22.1019 10.6 25.4722L5.88889 22.1667H20.0222V42H0ZM32.9778 42V28.1944C32.9778 22.8796 33.8284 17.9537 35.5296 13.4167C37.3617 8.87963 40.437 4.4074 44.7556 0L52.4111 5.63889C49.0086 9.39814 46.6531 12.8333 45.3444 15.9444C44.1667 18.9259 43.5778 22.1019 43.5778 25.4722L38.8667 22.1667H53V42H32.9778Z" fill="#141413"/>
</svg>
