<svg width="32" height="32" viewBox="0 0 32 32" fill="none" xmlns="http://www.w3.org/2000/svg">
<path d="M26.1474 7.3535C26.0537 7.25974 26.001 7.13258 26.001 7C26.001 6.86742 26.0537 6.74027 26.1474 6.6465C26.3105 6.44461 26.5167 6.28176 26.7509 6.16989C26.9851 6.05802 27.2414 5.99995 27.5009 5.99995C27.7604 5.99995 28.0167 6.05802 28.2509 6.16989C28.4851 6.28176 28.6913 6.44461 28.8544 6.6465C29.2079 7 29.3844 7 29.5009 7C29.6174 7 29.7939 7 30.1474 6.6465C30.1935 6.59875 30.2487 6.56066 30.3097 6.53445C30.3707 6.50825 30.4363 6.49445 30.5027 6.49388C30.5691 6.4933 30.6349 6.50595 30.6964 6.53109C30.7578 6.55623 30.8137 6.59336 30.8606 6.6403C30.9075 6.68725 30.9447 6.74308 30.9698 6.80452C30.995 6.86597 31.0076 6.93181 31.007 6.9982C31.0065 7.06459 30.9927 7.1302 30.9665 7.1912C30.9402 7.25221 30.9022 7.30738 30.8544 7.3535C30.6913 7.55539 30.4851 7.71824 30.2509 7.83011C30.0167 7.94199 29.7604 8.00005 29.5009 8.00005C29.2414 8.00005 28.9851 7.94199 28.7509 7.83011C28.5167 7.71824 28.3105 7.55539 28.1474 7.3535C27.7939 7 27.6174 7 27.5009 7C27.3844 7 27.2079 7 26.8544 7.3535C26.7606 7.44724 26.6335 7.4999 26.5009 7.4999C26.3683 7.4999 26.2412 7.44724 26.1474 7.3535ZM30.1474 9.1465C29.7939 9.5 29.6174 9.5 29.5009 9.5C29.3844 9.5 29.2079 9.5 28.8544 9.1465C28.6913 8.94461 28.4851 8.78176 28.2509 8.66989C28.0167 8.55802 27.7604 8.49995 27.5009 8.49995C27.2414 8.49995 26.9851 8.55802 26.7509 8.66989C26.5167 8.78176 26.3105 8.94461 26.1474 9.1465C26.0563 9.2408 26.0059 9.3671 26.0071 9.4982C26.0082 9.6293 26.0608 9.75471 26.1535 9.84741C26.2462 9.94011 26.3716 9.9927 26.5027 9.99384C26.6338 9.99498 26.7601 9.94458 26.8544 9.8535C27.2079 9.5 27.3844 9.5 27.5009 9.5C27.6174 9.5 27.7939 9.5 28.1474 9.8535C28.3105 10.0554 28.5167 10.2182 28.7509 10.3301C28.9851 10.442 29.2414 10.5 29.5009 10.5C29.7604 10.5 30.0167 10.442 30.2509 10.3301C30.4851 10.2182 30.6913 10.0554 30.8544 9.8535C30.9022 9.80738 30.9402 9.75221 30.9665 9.6912C30.9927 9.6302 31.0065 9.56459 31.007 9.4982C31.0076 9.43181 30.995 9.36597 30.9698 9.30453C30.9447 9.24308 30.9075 9.18725 30.8606 9.1403C30.8137 9.09336 30.7578 9.05623 30.6964 9.03109C30.6349 9.00595 30.5691 8.9933 30.5027 8.99388C30.4363 8.99445 30.3707 9.00825 30.3097 9.03445C30.2487 9.06066 30.1935 9.09875 30.1474 9.1465ZM9.5009 7.5H5.5009C5.36829 7.5 5.24112 7.55268 5.14735 7.64645C5.05358 7.74022 5.0009 7.86739 5.0009 8C5.0009 8.13261 5.05358 8.25979 5.14735 8.35356C5.24112 8.44732 5.36829 8.5 5.5009 8.5H9.5009C9.63351 8.5 9.76069 8.44732 9.85445 8.35356C9.94822 8.25979 10.0009 8.13261 10.0009 8C10.0009 7.86739 9.94822 7.74022 9.85445 7.64645C9.76069 7.55268 9.63351 7.5 9.5009 7.5ZM9.5009 5H5.5009C5.36829 5 5.24112 5.05268 5.14735 5.14645C5.05358 5.24022 5.0009 5.36739 5.0009 5.5C5.0009 5.63261 5.05358 5.75979 5.14735 5.85356C5.24112 5.94732 5.36829 6 5.5009 6H9.5009C9.63351 6 9.76069 5.94732 9.85445 5.85356C9.94822 5.75979 10.0009 5.63261 10.0009 5.5C10.0009 5.36739 9.94822 5.24022 9.85445 5.14645C9.76069 5.05268 9.63351 5 9.5009 5ZM9.5009 10H5.5009C5.36829 10 5.24112 10.0527 5.14735 10.1464C5.05358 10.2402 5.0009 10.3674 5.0009 10.5C5.0009 10.6326 5.05358 10.7598 5.14735 10.8536C5.24112 10.9473 5.36829 11 5.5009 11H9.5009C9.63351 11 9.76069 10.9473 9.85445 10.8536C9.94822 10.7598 10.0009 10.6326 10.0009 10.5C10.0009 10.3674 9.94822 10.2402 9.85445 10.1464C9.76069 10.0527 9.63351 10 9.5009 10ZM25.0009 5V11C25.0009 11.1326 24.9482 11.2598 24.8545 11.3536C24.7607 11.4473 24.6335 11.5 24.5009 11.5C20.7889 11.5 17.8479 12.4885 15.0044 13.444C14.4979 13.614 13.9979 13.7805 13.5009 13.94V15.5C13.5005 15.8977 13.3423 16.279 13.0611 16.5602C12.7799 16.8414 12.3986 16.9996 12.0009 17H11.5009V22C11.5 22.3092 11.4034 22.6106 11.2243 22.8627C11.0453 23.1148 10.7926 23.3053 10.5009 23.408V24.5C10.5005 24.7651 10.395 25.0192 10.2076 25.2067C10.0201 25.3941 9.766 25.4996 9.5009 25.5V27.5C9.5009 28.163 9.76429 28.7989 10.2331 29.2678C10.702 29.7366 11.3379 30 12.0009 30C12.6639 30 13.2998 29.7366 13.7687 29.2678C14.2375 28.7989 14.5009 28.163 14.5009 27.5V25C14.5009 24.0717 14.8696 23.1815 15.526 22.5251C16.1824 21.8687 17.0726 21.5 18.0009 21.5C18.9292 21.5 19.8194 21.8687 20.4758 22.5251C21.1322 23.1815 21.5009 24.0717 21.5009 25V30.5C21.5009 30.6326 21.4482 30.7598 21.3545 30.8536C21.2607 30.9473 21.1335 31 21.0009 31C20.8683 31 20.7411 30.9473 20.6473 30.8536C20.5536 30.7598 20.5009 30.6326 20.5009 30.5V25C20.5009 24.337 20.2375 23.7011 19.7687 23.2322C19.2998 22.7634 18.6639 22.5 18.0009 22.5C17.3379 22.5 16.702 22.7634 16.2331 23.2322C15.7643 23.7011 15.5009 24.337 15.5009 25V27.5C15.5009 28.4283 15.1322 29.3185 14.4758 29.9749C13.8194 30.6313 12.9292 31 12.0009 31C11.0726 31 10.1824 30.6313 9.52603 29.9749C8.86965 29.3185 8.5009 28.4283 8.5009 27.5V25.5C8.23581 25.4996 7.98168 25.3941 7.79423 25.2067C7.60678 25.0192 7.5013 24.7651 7.5009 24.5V23.465C7.21704 23.4069 6.95627 23.2674 6.75051 23.0634C6.54475 22.8594 6.40293 22.5998 6.3424 22.3165L4.5839 14.1035C3.23168 13.3481 2.1684 12.1652 1.56078 10.7404C0.953152 9.31565 0.835542 7.7295 1.22639 6.23069C1.61723 4.73187 2.49443 3.40514 3.72045 2.45852C4.94646 1.5119 6.45197 0.998917 8.0009 1C10.3729 1 12.6224 1.756 15.0044 2.556C17.8479 3.5115 20.7894 4.5 24.5009 4.5C24.6335 4.5 24.7607 4.55268 24.8545 4.64645C24.9482 4.74022 25.0009 4.86739 25.0009 5ZM9.5009 24.5V23.5H8.5009V24.5H9.5009ZM10.5009 22V14.741C9.67778 14.9071 8.8406 14.9939 8.0009 15C7.22222 14.9986 6.44931 14.8664 5.7144 14.609L7.3194 22.1055C7.34361 22.2177 7.40568 22.3181 7.49517 22.3899C7.58466 22.4618 7.69615 22.5006 7.8109 22.5H10.0009C10.1335 22.5 10.2607 22.4473 10.3545 22.3536C10.4482 22.2598 10.5009 22.1326 10.5009 22ZM12.5009 14.2475C12.1694 14.3454 11.836 14.4368 11.5009 14.5215V16H12.0009C12.1335 16 12.2607 15.9473 12.3545 15.8536C12.4482 15.7598 12.5009 15.6326 12.5009 15.5V14.2475ZM22.0009 10.6555V5.345C19.5038 4.99514 17.0514 4.37827 14.6859 3.505C12.3839 2.73 10.2094 2 8.0009 2C6.4096 2 4.88348 2.63214 3.75826 3.75736C2.63304 4.88258 2.0009 6.4087 2.0009 8C2.0009 9.5913 2.63304 11.1174 3.75826 12.2426C4.88348 13.3679 6.4096 14 8.0009 14C10.2094 14 12.3839 13.27 14.6859 12.4955C17.0514 11.6222 19.5038 11.0054 22.0009 10.6555ZM24.0009 5.494C23.6604 5.486 23.3309 5.4625 23.0009 5.439V10.5605C23.3309 10.5375 23.6604 10.514 24.0009 10.5055V5.494Z" fill="#535052"/>
</svg>
