<svg width="33" height="32" viewBox="0 0 33 32" fill="none" xmlns="http://www.w3.org/2000/svg">
<g clip-path="url(#clip0_1458_24902)">
<path d="M27.0146 5.50254H25.5107C25.2862 5.50254 25.1441 5.64473 25.1441 5.80186H25.144V10.6653C25.144 10.8673 25.3834 10.9721 25.6303 10.9721C25.8698 10.9721 26.1167 10.8673 26.1167 10.6653V8.92942H26.9548C27.9424 8.92942 28.7131 8.45799 28.7131 7.23093V7.1861C28.7131 5.95898 27.9648 5.50254 27.0146 5.50254ZM27.7403 7.30579C27.7403 7.88938 27.4411 8.16626 26.9547 8.16626H26.1167V6.35554H26.9547C27.4411 6.35554 27.7403 6.63241 27.7403 7.21601V7.30579ZM18.8966 7.40382C17.4762 5.98341 15.5878 5.20117 13.579 5.20117C11.5703 5.20117 9.68179 5.98341 8.26138 7.40382C8.22062 7.44457 8.18829 7.49295 8.16623 7.5462C8.14417 7.59945 8.13282 7.65652 8.13281 7.71416C8.13281 7.77179 8.14416 7.82887 8.16621 7.88212C8.18827 7.93537 8.22059 7.98375 8.26135 8.02451C8.3021 8.06527 8.35048 8.0976 8.40373 8.11966C8.45698 8.14172 8.51405 8.15307 8.57169 8.15307C8.62932 8.15308 8.6864 8.14173 8.73965 8.11967C8.7929 8.09762 8.84128 8.06529 8.88204 8.02454C10.1367 6.76998 11.8047 6.07903 13.5789 6.07903C15.3532 6.07903 17.0213 6.76998 18.2759 8.02454C18.3166 8.06535 18.365 8.09771 18.4182 8.11977C18.4715 8.14183 18.5286 8.15315 18.5862 8.15308C18.673 8.15305 18.7579 8.12729 18.83 8.07906C18.9022 8.03082 18.9584 7.96229 18.9917 7.8821C19.0249 7.80192 19.0336 7.71368 19.0167 7.62855C18.9998 7.54342 18.958 7.46522 18.8966 7.40382Z" fill="#535052"/>
<path d="M17.0872 9.21396C15.1534 7.28024 12.0071 7.28024 10.0734 9.21396C9.99358 9.29677 9.94941 9.40763 9.95045 9.52268C9.95149 9.63772 9.99766 9.74776 10.079 9.82912C10.1604 9.91047 10.2704 9.95664 10.3855 9.95768C10.5005 9.95872 10.6114 9.91455 10.6942 9.83468C12.2856 8.24331 14.875 8.24331 16.4664 9.83468C16.5071 9.8755 16.5555 9.90786 16.6088 9.92992C16.662 9.95198 16.7191 9.9633 16.7768 9.96322C16.8636 9.96319 16.9484 9.93743 17.0206 9.8892C17.0927 9.84097 17.1489 9.77243 17.1822 9.69224C17.2154 9.61206 17.2241 9.52382 17.2072 9.43869C17.1903 9.35356 17.1485 9.27536 17.0872 9.21396ZM15.305 10.996C14.354 10.045 12.8065 10.045 11.8555 10.996C11.8148 11.0368 11.7824 11.0852 11.7604 11.1384C11.7383 11.1917 11.7269 11.2488 11.7269 11.3064C11.7269 11.364 11.7383 11.4211 11.7604 11.4744C11.7824 11.5276 11.8148 11.576 11.8555 11.6168C11.9378 11.6991 12.0495 11.7453 12.1659 11.7453C12.2823 11.7453 12.3939 11.6991 12.4762 11.6168C13.085 11.008 14.0756 11.008 14.6844 11.6168C14.7251 11.6576 14.7734 11.6899 14.8267 11.712C14.88 11.7341 14.937 11.7454 14.9947 11.7453C15.0815 11.7453 15.1664 11.7196 15.2386 11.6713C15.3107 11.6231 15.367 11.5546 15.4002 11.4744C15.4334 11.3942 15.4421 11.3059 15.4252 11.2208C15.4082 11.1356 15.3664 11.0574 15.305 10.996ZM22.8607 19.5445C22.6701 19.4396 22.4843 19.326 22.3039 19.2042L19.4006 17.243C18.5195 16.6477 17.4917 16.3331 16.4284 16.3331H11.0997C9.68525 16.3331 8.35438 16.8829 7.3522 17.8813C6.83918 18.393 6.25098 18.8233 5.60798 19.1573C5.42214 19.2533 5.26635 19.3986 5.15772 19.5773C5.04908 19.7561 4.99181 19.9613 4.99219 20.1704C4.99219 20.8003 5.50453 21.3126 6.13434 21.3126H7.95108C8.06749 21.3126 8.17913 21.2664 8.26144 21.184C8.34376 21.1017 8.39 20.9901 8.39 20.8737C8.39 20.7573 8.34376 20.6456 8.26144 20.5633C8.17913 20.481 8.06749 20.4347 7.95108 20.4347H6.13434C6.06426 20.4347 5.99706 20.4068 5.9475 20.3572C5.89794 20.3077 5.87007 20.2405 5.86999 20.1704C5.86999 20.0716 5.92457 19.982 6.01248 19.9364C6.73475 19.5612 7.39545 19.0779 7.97172 18.5031C8.80817 17.6698 9.91903 17.2109 11.0996 17.2109H12.2926V20.4347H10.8344C10.718 20.4347 10.6064 20.481 10.5241 20.5633C10.4418 20.6456 10.3955 20.7573 10.3955 20.8737C10.3955 20.9901 10.4418 21.1017 10.5241 21.184C10.6064 21.2664 10.718 21.3126 10.8344 21.3126H22.8697C23.2305 21.3126 23.524 21.0191 23.524 20.6582C23.524 20.1962 23.2698 19.7694 22.8607 19.5445ZM13.1706 20.4348V17.211H16.4285C17.3128 17.21 18.1771 17.4745 18.9093 17.9704L21.8125 19.9317C22.0151 20.0684 22.2237 20.1959 22.4378 20.3137C22.4918 20.3433 22.5384 20.3847 22.5741 20.4348H13.1706ZM14.2581 21.9798H12.9024C12.7859 21.9798 12.6743 22.0261 12.592 22.1084C12.5097 22.1907 12.4634 22.3024 12.4634 22.4188C12.4634 22.5352 12.5097 22.6468 12.592 22.7291C12.6743 22.8114 12.7859 22.8577 12.9024 22.8577H14.2581C14.3745 22.8577 14.4862 22.8114 14.5685 22.7291C14.6508 22.6468 14.6971 22.5352 14.6971 22.4188C14.6971 22.3024 14.6508 22.1907 14.5685 22.1084C14.4862 22.0261 14.3745 21.9798 14.2581 21.9798Z" fill="#535052"/>
<path d="M31.6936 21.6124L31.555 21.3823C31.0324 20.5152 30.1633 19.9046 29.1705 19.7071L28.0373 19.4818V13.7381H30.9698C31.5736 13.7381 32.0648 13.2469 32.0648 12.6431V4.09497C32.0648 3.49116 31.5735 3 30.9698 3H22.4216C21.8178 3 21.3267 3.49122 21.3267 4.09497V7.33759C21.3267 7.454 21.3729 7.56565 21.4552 7.64796C21.5375 7.73028 21.6492 7.77652 21.7656 7.77652C21.882 7.77652 21.9936 7.73028 22.076 7.64796C22.1583 7.56565 22.2045 7.454 22.2045 7.33759V4.09497C22.2046 4.03739 22.2275 3.98219 22.2682 3.94148C22.3089 3.90076 22.3641 3.87786 22.4217 3.8778H30.9699C31.0275 3.87786 31.0827 3.90076 31.1234 3.94148C31.1641 3.98219 31.187 4.03739 31.1871 4.09497V12.6432C31.187 12.7008 31.1641 12.756 31.1234 12.7967C31.0827 12.8374 31.0275 12.8603 30.9699 12.8604H22.4216C22.3641 12.8603 22.3089 12.8374 22.2681 12.7967C22.2274 12.756 22.2045 12.7008 22.2045 12.6432V10.191C22.2045 10.0746 22.1582 9.963 22.0759 9.88068C21.9936 9.79837 21.8819 9.75212 21.7655 9.75212C21.6491 9.75212 21.5375 9.79837 21.4552 9.88068C21.3728 9.963 21.3266 10.0746 21.3266 10.191V12.6432C21.3266 13.247 21.8178 13.7382 22.4216 13.7382H25.747V19.0264L25.1645 18.9106C24.3605 18.7507 23.5767 18.2655 23.057 17.9144L20.1539 15.9531C19.0493 15.207 17.761 14.8126 16.4281 14.8126H11.0995C9.32635 14.8126 7.65808 15.5018 6.40201 16.7532C5.60966 17.5437 4.6043 18.0864 3.50866 18.3151L2.87849 18.4471C1.94165 18.6433 1.26172 19.4805 1.26172 20.4376V24.6885C1.26185 24.9369 1.33397 25.18 1.46934 25.3883C1.60472 25.5966 1.79755 25.7612 2.02452 25.8623L3.77277 26.6393C3.88161 27.2108 4.16011 27.7362 4.57198 28.1472C5.13962 28.7148 5.88527 28.9987 6.63098 28.9987C7.37669 28.9987 8.12228 28.7148 8.68999 28.1472C9.04257 27.7952 9.29827 27.3581 9.43232 26.8782H24.0093C24.1434 27.3581 24.3991 27.7952 24.7517 28.1472C25.3017 28.6971 26.0328 29 26.8107 29C27.5885 29 28.3197 28.6972 28.8697 28.1472C29.2223 27.7952 29.478 27.3581 29.6121 26.8782H30.4447C31.3422 26.8782 32.0723 26.1481 32.0723 25.2507V22.9741C32.0722 22.4942 31.9412 22.0234 31.6936 21.6124ZM26.6249 13.7381H27.1595V19.3072L26.6249 19.2009V13.7381ZM8.0692 27.5265C7.68504 27.9107 7.17426 28.1222 6.63092 28.1222C6.08759 28.1222 5.57681 27.9107 5.19264 27.5265C4.57637 26.9102 4.43929 25.9938 4.78073 25.2436L4.78891 25.2255C4.79932 25.2033 4.81034 25.1812 4.82159 25.1593C4.84361 25.1165 4.86715 25.0744 4.89218 25.0333C4.90223 25.0167 4.9124 25.0002 4.92299 24.9839C4.93256 24.9692 4.94242 24.9546 4.95241 24.9401C4.96228 24.9257 4.97209 24.9113 4.98232 24.8971C4.99406 24.881 5.00627 24.8651 5.01855 24.8492C5.02812 24.8368 5.03744 24.8243 5.04731 24.8121C5.06175 24.7942 5.07686 24.7767 5.0919 24.7593C5.10051 24.7493 5.10875 24.7392 5.11754 24.7294C5.13992 24.7045 5.16297 24.6801 5.18668 24.6563C5.18873 24.6542 5.19059 24.652 5.19264 24.65C5.19715 24.6455 5.20191 24.6413 5.20648 24.6368C5.22658 24.6171 5.2468 24.5976 5.26744 24.5789C5.27279 24.574 5.27845 24.5695 5.28387 24.5647C5.30445 24.5464 5.32515 24.5283 5.34633 24.511L5.35241 24.5063C6.09637 23.9042 7.16938 23.9049 7.91244 24.5087L7.91509 24.5107C7.93778 24.5292 7.95998 24.5486 7.98207 24.5682C7.98604 24.5717 7.99013 24.575 7.99404 24.5786C8.01956 24.6016 8.04459 24.6254 8.06914 24.6499C8.09562 24.6764 8.12114 24.7037 8.14593 24.7313C8.15682 24.7435 8.16711 24.7559 8.17764 24.7682C8.19052 24.7833 8.20346 24.7984 8.21585 24.8137C8.22975 24.831 8.24317 24.8486 8.25641 24.8661C8.28032 24.8977 8.3033 24.93 8.32531 24.963L8.33296 24.9746C8.84927 25.7632 8.76142 26.8342 8.0692 27.5265ZM28.2489 27.5265C27.8647 27.9107 27.3539 28.1222 26.8106 28.1222C26.2672 28.1222 25.7565 27.9107 25.3723 27.5265C24.68 26.8342 24.5921 25.763 25.1085 24.9745L25.116 24.9632C25.1311 24.9404 25.1468 24.918 25.1629 24.8957C25.1701 24.8858 25.1774 24.8761 25.1848 24.8664C25.1981 24.8487 25.2116 24.8311 25.2256 24.8137C25.238 24.7985 25.2507 24.7835 25.2635 24.7686C25.2742 24.7561 25.2846 24.7435 25.2956 24.7313C25.3204 24.7037 25.3459 24.6765 25.3724 24.65C25.7566 24.2658 26.2673 24.0542 26.8106 24.0542C27.354 24.0542 27.8647 24.2658 28.2489 24.65C28.2754 24.6765 28.3009 24.7037 28.3257 24.7314C28.3366 24.7435 28.3469 24.756 28.3575 24.7684C28.3704 24.7834 28.3833 24.7985 28.3956 24.8137C28.4096 24.8311 28.423 24.8486 28.4363 24.8663C28.463 24.9015 28.4885 24.9377 28.5128 24.9746C29.029 25.7631 28.9411 26.8343 28.2489 27.5265ZM31.1945 25.2507H31.1944C31.1944 25.6641 30.858 26.0004 30.4446 26.0004H29.722C29.7048 25.3638 29.4801 24.7564 29.0757 24.2585C29.073 24.2551 29.0704 24.2516 29.0677 24.2483C29.0425 24.2177 29.0167 24.1877 28.9903 24.1581C28.9836 24.1505 28.9772 24.1427 28.9704 24.1351C28.9423 24.1043 28.9136 24.0741 28.8842 24.0445C28.8793 24.0394 28.8747 24.0341 28.8696 24.0292C28.4915 23.6511 28.0277 23.3897 27.522 23.2633C27.2893 23.2053 27.0504 23.1761 26.8106 23.1763C26.6161 23.1763 26.4246 23.1953 26.238 23.2322C25.6785 23.3432 25.1641 23.6167 24.7516 24.0292C24.7466 24.0341 24.7421 24.0393 24.7372 24.0443C24.7077 24.0742 24.6787 24.1044 24.6508 24.1352C24.6441 24.1425 24.638 24.1501 24.6315 24.1574C24.6049 24.1874 24.5787 24.2176 24.5535 24.2484C24.5509 24.2515 24.5486 24.2547 24.5461 24.2578C24.1414 24.7558 23.9164 25.3636 23.8992 26.0005H9.54233C9.52506 25.3628 9.29964 24.7543 8.89392 24.2559L8.88839 24.2489C8.86174 24.2165 8.83442 24.1846 8.80643 24.1534C8.80125 24.1476 8.79644 24.1416 8.7912 24.1358C8.62627 23.9532 8.4389 23.7922 8.23355 23.6567C7.74936 23.3374 7.19014 23.1777 6.63092 23.1777C5.88527 23.1777 5.13956 23.4616 4.57192 24.0292C4.53965 24.0616 4.50815 24.0948 4.47744 24.1286C4.46835 24.1386 4.45963 24.1488 4.45066 24.1588C4.41945 24.1941 4.38905 24.2301 4.35949 24.2667C4.33801 24.2935 4.31707 24.3206 4.29661 24.348C4.29023 24.3565 4.28367 24.3649 4.27747 24.3735C4.22271 24.4485 4.17158 24.5261 4.12426 24.606L4.12035 24.6127C4.09733 24.6519 4.07524 24.6916 4.0541 24.7318L4.05223 24.7353C3.89884 25.0267 3.79633 25.3422 3.74912 25.6681L2.38112 25.0601C2.30928 25.0281 2.24823 24.976 2.20538 24.9101C2.16252 24.8441 2.13969 24.7672 2.13964 24.6885V20.4376C2.13964 19.8936 2.52615 19.4178 3.05865 19.3062L3.68882 19.1742C4.95092 18.9108 6.10903 18.2856 7.02177 17.375C8.11217 16.2886 9.56038 15.6904 11.0996 15.6904H16.4283C17.5854 15.6904 18.7038 16.0328 19.6627 16.6804L22.5658 18.6417C23.1484 19.0353 24.0339 19.5806 24.9934 19.7715L28.9994 20.5681C29.3715 20.6425 29.7242 20.7936 30.0347 21.0118C30.3453 21.2299 30.607 21.5104 30.8032 21.8353L30.9419 22.0654C31.1072 22.3397 31.1945 22.6538 31.1945 22.9741V25.2507Z" fill="#535052"/>
<path d="M7.57564 25.1462C7.32387 24.8945 6.98928 24.7559 6.63334 24.7559C6.45828 24.7554 6.28486 24.7896 6.12312 24.8566C5.96139 24.9236 5.81454 25.022 5.69109 25.1462C5.56697 25.2696 5.46856 25.4165 5.40156 25.5782C5.33457 25.7399 5.30031 25.9134 5.30079 26.0884C5.30031 26.2635 5.33457 26.4369 5.40156 26.5986C5.46856 26.7604 5.56697 26.9072 5.69109 27.0307C5.81455 27.1548 5.9614 27.2532 6.12315 27.3202C6.2849 27.3872 6.45833 27.4214 6.6334 27.421C6.80846 27.4215 6.98188 27.3872 7.14362 27.3202C7.30536 27.2532 7.4522 27.1548 7.57564 27.0307C8.09521 26.5111 8.09521 25.6657 7.57564 25.1462ZM6.95486 26.4099C6.91274 26.4523 6.86263 26.4859 6.80744 26.5087C6.75225 26.5316 6.69307 26.5433 6.63334 26.5431C6.5736 26.5433 6.51441 26.5316 6.45922 26.5087C6.40403 26.4859 6.35393 26.4523 6.31181 26.4099C6.26945 26.3678 6.23586 26.3177 6.21299 26.2625C6.19012 26.2073 6.17843 26.1481 6.17858 26.0884C6.17858 25.9669 6.22588 25.8527 6.31181 25.7668C6.35394 25.7245 6.40404 25.6909 6.45923 25.668C6.51442 25.6451 6.5736 25.6334 6.63334 25.6336C6.75477 25.6336 6.86899 25.6809 6.95486 25.7668C7.13214 25.9442 7.13214 26.2327 6.95486 26.4099ZM27.7553 25.1462C27.6318 25.0221 27.485 24.9237 27.3232 24.8566C27.1615 24.7896 26.9881 24.7554 26.813 24.7559C26.6379 24.7554 26.4645 24.7896 26.3027 24.8566C26.141 24.9236 25.9941 25.022 25.8707 25.1462C25.3512 25.6657 25.3512 26.5111 25.8707 27.0307C25.9941 27.1548 26.141 27.2532 26.3027 27.3202C26.4645 27.3872 26.6379 27.4214 26.813 27.421C26.988 27.4215 27.1615 27.3872 27.3232 27.3202C27.4849 27.2532 27.6318 27.1548 27.7552 27.0307C28.0069 26.7791 28.1455 26.4444 28.1455 26.0885C28.1455 25.7325 28.0069 25.3979 27.7553 25.1462ZM27.1345 26.41C27.0924 26.4524 27.0423 26.4859 26.9871 26.5088C26.9319 26.5317 26.8727 26.5433 26.813 26.5432C26.7532 26.5433 26.6941 26.5316 26.6389 26.5088C26.5837 26.4859 26.5336 26.4524 26.4915 26.41C26.3142 26.2327 26.3142 25.9442 26.4915 25.767C26.5336 25.7246 26.5837 25.691 26.6389 25.6681C26.6941 25.6453 26.7532 25.6336 26.813 25.6337C26.9345 25.6337 27.0486 25.681 27.1346 25.767C27.1769 25.8091 27.2105 25.8592 27.2334 25.9144C27.2562 25.9696 27.2679 26.0287 27.2677 26.0885C27.2679 26.1482 27.2562 26.2074 27.2333 26.2626C27.2105 26.3178 27.1769 26.3679 27.1345 26.41Z" fill="#535052"/>
</g>
<defs>
<clipPath id="clip0_1458_24902">
<rect width="32" height="32" fill="white" transform="translate(0.667969)"/>
</clipPath>
</defs>
</svg>
