<svg width="28" height="28" viewBox="0 0 28 28" fill="none" xmlns="http://www.w3.org/2000/svg">
<circle cx="14" cy="14" r="14" fill="#F0F0F0"/>
<path d="M9.45396 14.4687H13.2835V18.2983C13.2835 18.6875 13.6037 19.014 13.9992 19.014C14.3947 19.014 14.7148 18.6875 14.7148 18.2983V14.4687H18.5444C18.9336 14.4687 19.26 14.1486 19.26 13.7531C19.26 13.3576 18.9336 13.0374 18.5444 13.0374H14.7148V9.20787C14.7148 8.81864 14.3947 8.49219 13.9992 8.49219C13.6037 8.49219 13.2835 8.81864 13.2835 9.20787V13.0374H9.45396C9.06473 13.0374 8.73828 13.3576 8.73828 13.7531C8.73828 14.1486 9.06473 14.4687 9.45396 14.4687Z" fill="#1F1C1E"/>
</svg>
