<svg width="73" height="74" viewBox="0 0 73 74" fill="none" xmlns="http://www.w3.org/2000/svg">
<rect y="0.289062" width="73" height="73" rx="20" fill="#212674"/>
<path fill-rule="evenodd" clip-rule="evenodd" d="M34.1964 44.114C34.1261 44.0908 34.0612 44.0541 34.0052 44.0058C33.9491 43.9576 33.9032 43.8988 33.8699 43.8328C33.8366 43.7667 33.8167 43.6948 33.8112 43.6211C33.8057 43.5474 33.8148 43.4733 33.8379 43.4031C33.8847 43.2612 33.9858 43.1438 34.1192 43.0766C34.1852 43.0433 34.2571 43.0234 34.3308 43.0179C34.4046 43.0124 34.4786 43.0215 34.5489 43.0446C37.0531 43.8695 38.8559 44.2452 40.1521 44.3514C41.149 43.8324 41.6877 43.2868 41.71 42.7694C41.7335 42.2077 41.1622 41.535 40.1014 40.8767C38.6899 40.0004 36.564 39.2471 34.4139 38.8617C32.2678 38.477 30.4669 38.5309 29.5906 39.0049L24.1468 42.294L28.2829 49.4581L28.805 49.1209C29.1446 48.9012 29.3371 48.8199 29.7498 48.9646C29.8045 48.9831 29.8665 49.0056 29.9559 49.0298L37.9184 51.2173C37.9304 51.2213 37.9436 51.2245 37.9554 51.2294C39.3773 51.7259 40.632 51.6122 41.7914 50.8826L41.8003 50.877L54.0881 43.468C54.1059 43.4568 54.1245 43.4468 54.1436 43.4381C55.1415 42.9803 55.7105 42.3389 55.7474 41.6324C55.778 41.0393 55.4225 40.4487 54.8196 40.093C53.9843 39.5997 52.8925 39.6745 51.8968 40.2917L51.8699 40.3078L43.6341 44.7941C42.1204 45.9302 39.033 45.7073 34.1966 44.1144L34.1964 44.114ZM27.8641 50.9871C28.0052 51.2319 28.0434 51.5227 27.9703 51.7957C27.8972 52.0686 27.7187 52.3014 27.4741 52.4428L25.2586 53.7223C25.0137 53.8633 24.7228 53.9014 24.4498 53.8282C24.1769 53.755 23.9441 53.5764 23.8027 53.3316L18.3911 43.9595C18.251 43.7143 18.2134 43.4236 18.2866 43.1509C18.3597 42.8781 18.5377 42.6452 18.7817 42.503L20.9968 41.2243C21.2417 41.0832 21.5325 41.0452 21.8055 41.1184C22.0784 41.1916 22.3111 41.3702 22.4525 41.6149L27.8641 50.9874V50.9871ZM22.072 44.5309L21.2824 43.1645C21.2457 43.0998 21.1966 43.043 21.1379 42.9974C21.0792 42.9518 21.0121 42.9183 20.9403 42.8988C20.8686 42.8793 20.7937 42.8741 20.72 42.8837C20.6463 42.8933 20.5752 42.9174 20.5108 42.9545C20.4465 42.9917 20.3901 43.0413 20.345 43.1004C20.2999 43.1595 20.2669 43.2269 20.248 43.2988C20.2291 43.3707 20.2246 43.4456 20.2348 43.5192C20.245 43.5929 20.2697 43.6638 20.3074 43.7278L21.0957 45.0946C21.1452 45.1803 21.2164 45.2514 21.3022 45.3008C21.3879 45.3502 21.4852 45.3761 21.5841 45.3759C21.6829 45.3761 21.78 45.35 21.8653 45.3002C21.9295 45.2632 21.9857 45.2141 22.0308 45.1554C22.0758 45.0968 22.1089 45.0298 22.1282 44.9584C22.1474 44.8869 22.1523 44.8124 22.1428 44.7391C22.1332 44.6657 22.1092 44.595 22.0723 44.5309H22.072ZM37.7336 29.0659C37.7335 30.3695 38.12 31.6438 38.8441 32.7278C39.5683 33.8117 40.5976 34.6565 41.8019 35.1555C43.0062 35.6544 44.3315 35.785 45.61 35.5308C46.8885 35.2766 48.063 34.6489 48.9848 33.7272C49.9066 32.8055 50.5345 31.6311 50.7889 30.3526C51.0433 29.0741 50.9128 27.7489 50.414 26.5445C49.9153 25.3401 49.0706 24.3107 47.9867 23.5864C46.9029 22.8621 45.6286 22.4754 44.325 22.4753C42.5777 22.4775 40.9025 23.1725 39.6668 24.408C38.4312 25.6435 37.7359 27.3186 37.7336 29.0659ZM41.6834 30.7076C41.666 30.6352 41.6631 30.5601 41.675 30.4867C41.6868 30.4132 41.713 30.3428 41.7522 30.2796C41.7914 30.2163 41.8428 30.1615 41.9033 30.1182C41.9638 30.0749 42.0323 30.044 42.1048 30.0274C42.1774 30.0107 42.2525 30.0086 42.3258 30.0212C42.3992 30.0337 42.4693 30.0607 42.5321 30.1005C42.595 30.1404 42.6493 30.1923 42.692 30.2532C42.7347 30.3142 42.7648 30.383 42.7807 30.4557C42.9925 31.3771 43.9572 31.6756 44.8198 31.5638C45.2972 31.5018 45.6752 31.2548 45.8064 30.92C45.9056 30.6689 45.849 30.3994 45.6501 30.1595C45.3142 29.7564 44.9597 29.7033 44.4221 29.6228C44.0749 29.5808 43.7329 29.5029 43.4017 29.3902L43.384 29.383C42.4885 29.0209 41.9613 28.3176 41.9734 27.504C41.9855 26.6735 42.5488 25.9308 43.4082 25.6121C43.5375 25.5648 43.6698 25.5258 43.8041 25.4955V24.8613C43.8041 24.7119 43.8634 24.5687 43.9691 24.463C44.0747 24.3574 44.218 24.2981 44.3674 24.2981C44.5168 24.2981 44.66 24.3574 44.7657 24.463C44.8713 24.5687 44.9307 24.7119 44.9307 24.8613L44.9311 25.4826C45.804 25.6623 46.5466 26.2905 46.9111 27.2538C46.9625 27.3931 46.9568 27.5471 46.8952 27.6823C46.8336 27.8174 46.7211 27.9228 46.5822 27.9754C46.4433 28.028 46.2893 28.0237 46.1536 27.9633C46.0179 27.9029 45.9115 27.7913 45.8577 27.6529C45.5111 26.7363 44.6836 26.3412 43.8 26.6685C43.3866 26.8222 43.1047 27.1641 43.1 27.5207C43.0943 27.8595 43.3429 28.1484 43.7985 28.3359C44.0558 28.4192 44.3208 28.4767 44.5895 28.5077C45.2062 28.6002 45.9052 28.7049 46.5159 29.438C46.9768 29.9916 47.1034 30.699 46.8556 31.3306C46.57 32.0589 45.8634 32.5635 44.9645 32.6802C44.9535 32.6818 44.942 32.6826 44.9307 32.6834L44.9311 33.27C44.9293 33.4183 44.8692 33.5599 44.7637 33.6642C44.6582 33.7684 44.5159 33.8269 44.3676 33.8269C44.2193 33.8269 44.0769 33.7684 43.9715 33.6642C43.866 33.5599 43.8058 33.4183 43.8041 33.27V32.645C42.8346 32.4567 41.946 31.8531 41.6832 30.7075L41.6834 30.7076ZM44.325 36.7839C42.7986 36.784 41.3065 36.3315 40.0373 35.4835C38.7681 34.6356 37.7788 33.4303 37.1946 32.0201C36.6104 30.61 36.4575 29.0582 36.7552 27.5611C37.0529 26.0641 37.7878 24.6889 38.8671 23.6095C39.9464 22.5301 41.3215 21.795 42.8185 21.4971C44.3156 21.1993 45.8673 21.352 47.2776 21.9361C48.6878 22.5201 49.8932 23.5092 50.7413 24.7783C51.5894 26.0475 52.0421 27.5395 52.0421 29.0659C52.0397 31.112 51.2258 33.0735 49.7792 34.5203C48.3325 35.9672 46.3711 36.7812 44.325 36.7839ZM35.3959 29.0659C35.3959 27.2999 35.9195 25.5736 36.9007 24.1052C37.8818 22.6368 39.2763 21.4923 40.9079 20.8165C42.5394 20.1406 44.3348 19.9638 46.0669 20.3083C47.7989 20.6528 49.39 21.5031 50.6388 22.7519C51.8875 24.0006 52.738 25.5916 53.0826 27.3237C53.4271 29.0557 53.2504 30.8511 52.5746 32.4827C51.8988 34.1143 50.7544 35.5088 49.286 36.49C47.8177 37.4712 46.0914 37.9949 44.3253 37.995C41.958 37.9924 39.6884 37.0508 38.0144 35.3768C36.3405 33.7029 35.3989 31.4333 35.3962 29.0659H35.3959Z" fill="white"/>
</svg>
