<svg width="14" height="14" viewBox="0 0 14 14" fill="none" xmlns="http://www.w3.org/2000/svg">
<path d="M6.9974 1.16602C3.78323 1.16602 1.16406 3.78518 1.16406 6.99935C1.16406 10.2135 3.78323 12.8327 6.9974 12.8327C10.2116 12.8327 12.8307 10.2135 12.8307 6.99935C12.8307 3.78518 10.2116 1.16602 6.9974 1.16602ZM8.9574 8.34102C9.12656 8.51018 9.12656 8.79018 8.9574 8.95935C8.8699 9.04685 8.75906 9.08768 8.64823 9.08768C8.5374 9.08768 8.42656 9.04685 8.33906 8.95935L6.9974 7.61768L5.65573 8.95935C5.56823 9.04685 5.4574 9.08768 5.34656 9.08768C5.23573 9.08768 5.1249 9.04685 5.0374 8.95935C4.86823 8.79018 4.86823 8.51018 5.0374 8.34102L6.37906 6.99935L5.0374 5.65768C4.86823 5.48852 4.86823 5.20852 5.0374 5.03935C5.20656 4.87018 5.48656 4.87018 5.65573 5.03935L6.9974 6.38102L8.33906 5.03935C8.50823 4.87018 8.78823 4.87018 8.9574 5.03935C9.12656 5.20852 9.12656 5.48852 8.9574 5.65768L7.61573 6.99935L8.9574 8.34102Z" fill="#BD2D19"/>
</svg>
