<svg width="73" height="74" viewBox="0 0 73 74" fill="none" xmlns="http://www.w3.org/2000/svg">
<rect y="0.289062" width="73" height="73" rx="20" fill="#4B9CD3"/>
<path d="M39.7109 22V24.5C39.7109 24.8315 39.5792 25.1495 39.3448 25.3839C39.1104 25.6183 38.7925 25.75 38.4609 25.75H25.9609C25.6294 25.75 25.3115 25.6183 25.0771 25.3839C24.8426 25.1495 24.7109 24.8315 24.7109 24.5V22C24.7109 21.6685 24.8426 21.3505 25.0771 21.1161C25.3115 20.8817 25.6294 20.75 25.9609 20.75H29.7109C29.7109 19.375 30.8359 18.25 32.2109 18.25C32.8984 18.25 33.5234 18.525 33.9734 18.9875C34.4359 19.4375 34.7109 20.0625 34.7109 20.75H38.4609C38.7925 20.75 39.1104 20.8817 39.3448 21.1161C39.5792 21.3505 39.7109 21.6685 39.7109 22Z" fill="white"/>
<path d="M44.7109 35.725V25.75C44.7109 24.375 43.5859 23.25 42.2109 23.25H41.5859V24.5C41.5859 25.3288 41.2567 26.1237 40.6706 26.7097C40.0846 27.2958 39.2897 27.625 38.4609 27.625H25.9609C25.5506 27.625 25.1442 27.5442 24.7651 27.3871C24.3859 27.2301 24.0414 26.9999 23.7512 26.7097C23.461 26.4195 23.2309 26.075 23.0738 25.6959C22.9168 25.3167 22.8359 24.9104 22.8359 24.5V23.25H22.2109C20.8359 23.25 19.7109 24.375 19.7109 25.75V53.25C19.7109 54.625 20.8359 55.75 22.2109 55.75H42.2109C43.5859 55.75 44.7109 54.625 44.7109 53.25V48.0875L41.2109 51.5875L33.4859 53.1375L35.0234 45.4L44.7109 35.725ZM24.7109 29.8125H39.7109C40.2234 29.8125 40.6484 30.2375 40.6484 30.75C40.6484 31.2625 40.2234 31.6875 39.7109 31.6875H24.7109C24.1984 31.6875 23.7734 31.2625 23.7734 30.75C23.7734 30.2375 24.1984 29.8125 24.7109 29.8125ZM24.7109 34.8125H39.7109C40.2234 34.8125 40.6484 35.2375 40.6484 35.75C40.6484 36.2625 40.2234 36.6875 39.7109 36.6875H24.7109C24.1984 36.6875 23.7734 36.2625 23.7734 35.75C23.7734 35.2375 24.1984 34.8125 24.7109 34.8125ZM24.7109 39.8125H37.0359C37.5484 39.8125 37.9734 40.2375 37.9734 40.75C37.9734 41.2625 37.5484 41.6875 37.0359 41.6875H24.7109C24.1984 41.6875 23.7734 41.2625 23.7734 40.75C23.7734 40.2375 24.1984 39.8125 24.7109 39.8125ZM32.0484 51.6875H24.7109C24.1984 51.6875 23.7734 51.2625 23.7734 50.75C23.7734 50.2375 24.1984 49.8125 24.7109 49.8125H32.0484C32.5609 49.8125 32.9859 50.2375 32.9859 50.75C32.9859 51.2625 32.5609 51.6875 32.0484 51.6875ZM33.0484 46.6875H24.7109C24.1984 46.6875 23.7734 46.2625 23.7734 45.75C23.7734 45.2375 24.1984 44.8125 24.7109 44.8125H33.0484C33.5609 44.8125 33.9859 45.2375 33.9859 45.75C33.9859 46.2625 33.5609 46.6875 33.0484 46.6875Z" fill="white"/>
<path d="M51.7837 38.3742L40.2925 49.8654L35.875 50.7492L36.7587 46.3304L48.2488 34.8392L51.7837 38.3742ZM54.2875 34.8492C54.2875 35.4867 54.0375 36.1242 53.55 36.6117L53.1125 37.0492L49.575 33.5117L50.0125 33.0742C50.3631 32.7241 50.8097 32.4858 51.2957 32.3895C51.7818 32.2933 52.2855 32.3433 52.7431 32.5333C53.2007 32.7233 53.5917 33.0447 53.8666 33.457C54.1415 33.8692 54.288 34.3537 54.2875 34.8492Z" fill="white"/>
</svg>
