<svg width="32" height="32" viewBox="0 0 32 32" fill="none" xmlns="http://www.w3.org/2000/svg">
<g clip-path="url(#clip0_1458_24882)">
<path d="M24.9896 13.7851L23.8638 12.8202C23.5717 12.5698 23.3373 12.2592 23.1765 11.9096C23.0158 11.5601 22.9326 11.1799 22.9326 10.7952V10.6671C23.074 10.6671 23.2097 10.6109 23.3097 10.5108C23.4097 10.4108 23.4659 10.2752 23.4659 10.1337V8.00039C23.4659 7.11679 22.7495 6.40039 21.8659 6.40039H19.7326C18.849 6.40039 18.1326 7.11679 18.1326 8.00039V10.1337C18.1326 10.2752 18.1887 10.4108 18.2888 10.5108C18.3888 10.6109 18.5244 10.6671 18.6659 10.6671V10.7952C18.6661 11.1802 18.583 11.5608 18.4221 11.9106C18.2613 12.2604 18.0265 12.5713 17.7341 12.8217L16.6094 13.7866C16.0835 14.2368 15.6612 14.7955 15.3718 15.4244C15.0823 16.0533 14.9325 16.7375 14.9326 17.4298V28.2671C14.9349 30.328 16.605 31.9981 18.6659 32.0004H22.9326C24.9935 31.9981 26.6636 30.328 26.6659 28.2671V17.4298C26.6663 16.7373 26.5166 16.0529 26.2272 15.4237C25.9379 14.7945 25.5156 14.2355 24.9896 13.7851ZM19.1992 8.00039C19.1992 7.85894 19.2554 7.72329 19.3554 7.62327C19.4554 7.52325 19.5911 7.46706 19.7326 7.46706H21.8659C22.0073 7.46706 22.143 7.52325 22.243 7.62327C22.343 7.72329 22.3992 7.85894 22.3992 8.00039V9.60039H19.1992V8.00039ZM25.5992 28.2671C25.5974 29.7392 24.4047 30.9319 22.9326 30.9337H18.6659C17.194 30.9319 16.001 29.7392 15.9992 28.2671V17.4298C15.9989 16.8912 16.1153 16.3588 16.3404 15.8695C16.5655 15.3801 16.8939 14.9454 17.3032 14.5951L18.4286 13.6298C18.8378 13.2795 19.1662 12.8447 19.3913 12.3554C19.6164 11.866 19.7328 11.3338 19.7326 10.7951V10.6671H21.8659V10.7952C21.8659 11.3337 21.9823 11.8659 22.2073 12.3552C22.4323 12.8445 22.7604 13.2793 23.1692 13.6299L24.2959 14.5952C24.7049 14.9455 25.0333 15.3803 25.2583 15.8697C25.4832 16.359 25.5996 16.8913 25.5992 17.4299V28.2671ZM6.93255 27.2004C4.87162 27.1981 3.20155 25.528 3.19922 23.4671V19.2004C3.19922 17.1384 4.87082 15.4671 6.93255 15.4671C8.99455 15.4671 10.6659 17.1384 10.6659 19.2004V23.4671C10.6636 25.528 8.99349 27.1981 6.93255 27.2004ZM6.93255 16.5337C5.46069 16.5355 4.26769 17.7283 4.26589 19.2004V23.4671C4.26589 24.9397 5.45989 26.1337 6.93255 26.1337C8.40549 26.1337 9.59922 24.9397 9.59922 23.4671V19.2004C9.59742 17.7283 8.40469 16.5355 6.93255 16.5337Z" fill="#535052"/>
<path d="M20.8 25.6C19.0334 25.5982 17.6018 24.1667 17.6 22.4V21.3333C17.6 19.5661 19.0328 18.1333 20.8 18.1333C22.5675 18.1333 24 19.5661 24 21.3333V22.4C23.9982 24.1667 22.5667 25.5982 20.8 25.6ZM20.8 19.2C19.6219 19.2 18.6667 20.1552 18.6667 21.3333V22.4C18.6667 23.5781 19.6219 24.5333 20.8 24.5333C21.9782 24.5333 22.9334 23.5781 22.9334 22.4V21.3333C22.9334 20.1552 21.9782 19.2 20.8 19.2ZM22.9334 3.2C22.0498 3.2 21.3334 2.4836 21.3334 1.6C21.3334 0.7164 22.0498 0 22.9334 0C23.817 0 24.5334 0.7164 24.5334 1.6C24.5334 2.4836 23.817 3.2 22.9334 3.2ZM22.9334 1.06667C22.7919 1.06667 22.6563 1.12286 22.5562 1.22288C22.4562 1.3229 22.4 1.45855 22.4 1.6C22.4 1.74145 22.4562 1.8771 22.5562 1.97712C22.6563 2.07714 22.7919 2.13333 22.9334 2.13333C23.0748 2.13333 23.2105 2.07714 23.3105 1.97712C23.4105 1.8771 23.4667 1.74145 23.4667 1.6C23.4667 1.45855 23.4105 1.3229 23.3105 1.22288C23.2105 1.12286 23.0748 1.06667 22.9334 1.06667ZM25.6 7.46667C24.4219 7.46667 23.4667 6.51147 23.4667 5.33333C23.4667 4.1552 24.4219 3.2 25.6 3.2C26.7782 3.2 27.7334 4.1552 27.7334 5.33333C27.7334 6.51147 26.7782 7.46667 25.6 7.46667ZM25.6 4.26667C25.011 4.26667 24.5334 4.74427 24.5334 5.33333C24.5334 5.9224 25.011 6.4 25.6 6.4C26.1891 6.4 26.6667 5.9224 26.6667 5.33333C26.6667 4.74427 26.1891 4.26667 25.6 4.26667ZM12.8 0H4.2667C3.3831 0 2.6667 0.7164 2.6667 1.6C2.6667 2.4836 3.3831 3.2 4.2667 3.2H4.80003V4.26667H4.2667C4.12525 4.26667 3.98959 4.32286 3.88957 4.42288C3.78956 4.5229 3.73336 4.65855 3.73336 4.8V8C3.73336 8.14145 3.78956 8.2771 3.88957 8.37712C3.98959 8.47714 4.12525 8.53333 4.2667 8.53333V8.81487C4.26763 9.11214 4.18531 9.40374 4.02905 9.65664C3.87279 9.90954 3.64884 10.1136 3.38256 10.2458L3.24323 10.3151C1.2503 11.3031 -0.00723534 13.3383 3.13245e-05 15.5627V28.2667C0.00236466 30.3276 1.67243 31.9977 3.73336 32H10.1334C12.1943 31.9977 13.8644 30.3276 13.8667 28.2667V15.5627C13.8742 13.3383 12.6164 11.3031 10.6235 10.3151L10.4844 10.2458C10.2181 10.1136 9.99415 9.90957 9.83785 9.65669C9.68155 9.40381 9.59917 9.11222 9.60003 8.81493V8.53333C9.74148 8.53333 9.87714 8.47714 9.97716 8.37712C10.0772 8.2771 10.1334 8.14145 10.1334 8V4.8C10.1334 4.65855 10.0772 4.5229 9.97716 4.42288C9.87714 4.32286 9.74148 4.26667 9.60003 4.26667H9.0667V3.2H12.8C12.9415 3.2 13.0771 3.25619 13.1772 3.35621C13.2772 3.45623 13.3334 3.59188 13.3334 3.73333V4.8C13.3334 4.94145 13.3896 5.0771 13.4896 5.17712C13.5896 5.27714 13.7253 5.33333 13.8667 5.33333H16C16.1415 5.33333 16.2771 5.27714 16.3772 5.17712C16.4772 5.0771 16.5334 4.94145 16.5334 4.8V3.73333C16.531 1.6724 14.861 0.00233333 12.8 0ZM4.80003 5.33333H9.0667V7.46667H4.80003V5.33333ZM10.0076 11.2L10.1461 11.2693C11.7768 12.0776 12.8063 13.7427 12.8 15.5627V28.2667C12.7982 29.7388 11.6055 30.9315 10.1334 30.9333H3.73336C2.2615 30.9315 1.0685 29.7388 1.0667 28.2667V15.5627C1.06374 14.6706 1.31081 13.7955 1.77989 13.0366C2.24898 12.2777 2.9213 11.6655 3.72063 11.2693L3.85916 11.2C4.30323 10.9799 4.67673 10.6398 4.9373 10.2182C5.19787 9.79664 5.33508 9.31047 5.33336 8.81487V8.53333H8.53337V8.81487C8.5317 9.31046 8.66894 9.79661 8.9295 10.2182C9.19006 10.6397 9.56354 10.9799 10.0076 11.2ZM8.00003 4.26667H5.8667V3.2H8.00003V4.26667ZM15.4667 4.26667H14.4V3.73333C14.4 2.84973 13.6836 2.13333 12.8 2.13333H4.2667C4.12525 2.13333 3.98959 2.07714 3.88957 1.97712C3.78956 1.8771 3.73336 1.74145 3.73336 1.6C3.73336 1.45855 3.78956 1.3229 3.88957 1.22288C3.98959 1.12286 4.12525 1.06667 4.2667 1.06667H12.8C14.2722 1.06847 15.4649 2.2612 15.4667 3.73333V4.26667Z" fill="#535052"/>
</g>
<defs>
<clipPath id="clip0_1458_24882">
<rect width="32" height="32" fill="white"/>
</clipPath>
</defs>
</svg>
