<svg width="20" height="20" viewBox="0 0 20 20" fill="none" xmlns="http://www.w3.org/2000/svg">
<path d="M15 5.83203C15.6454 5.96585 16.1324 6.18919 16.5237 6.56194C17.5 7.49188 17.5 8.98859 17.5 11.982C17.5 14.9754 17.5 16.4722 16.5237 17.4021C15.5474 18.332 13.976 18.332 10.8333 18.332H9.16667C6.02397 18.332 4.45262 18.332 3.47631 17.4021C2.5 16.4722 2.5 14.9754 2.5 11.982C2.5 8.98859 2.5 7.49188 3.47631 6.56194C3.86765 6.18919 4.35459 5.96585 5 5.83203" stroke="#1F1C1E" stroke-width="1.3" stroke-linecap="round"/>
<path d="M10.0211 1.66645L10 11.666M10.0211 1.66645C9.88555 1.66084 9.74921 1.70927 9.62778 1.81178C8.87239 2.4494 7.5 4.10673 7.5 4.10673M10.0211 1.66645C10.1426 1.67149 10.2635 1.71998 10.3723 1.81192C11.1276 2.44966 12.5 4.10673 12.5 4.10673" stroke="#1F1C1E" stroke-width="1.3" stroke-linecap="round" stroke-linejoin="round"/>
</svg>
