<svg width="42" height="26" viewBox="0 0 42 26" fill="none" xmlns="http://www.w3.org/2000/svg">
<rect x="0.269231" y="0.269231" width="41.4615" height="25.4615" fill="white"/>
<rect x="0.269231" y="0.269231" width="41.4615" height="25.4615" stroke="#DCDCDC" stroke-width="0.538462"/>
<path fill-rule="evenodd" clip-rule="evenodd" d="M34 13.1798C34 11.331 33.1045 9.87207 31.3928 9.87207C29.6739 9.87207 28.6339 11.331 28.6339 13.1654C28.6339 15.3393 29.8617 16.4371 31.6239 16.4371C32.4833 16.4371 33.1333 16.2421 33.6244 15.9676V14.5231C33.1333 14.7687 32.57 14.9204 31.855 14.9204C31.1544 14.9204 30.5333 14.6748 30.4539 13.8226H33.9855C33.9856 13.7287 34 13.3531 34 13.1798ZM30.4322 12.4937C30.4322 11.6776 30.9306 11.3381 31.3856 11.3381C31.8261 11.3381 32.2956 11.6776 32.2956 12.4937H30.4322ZM25.8461 9.87207C25.1384 9.87207 24.6833 10.2043 24.4305 10.4354L24.3367 9.98764H22.7478V18.4088L24.5533 18.026L24.5605 15.9821C24.8205 16.1699 25.2033 16.4371 25.8389 16.4371C27.1316 16.4371 28.3089 15.3971 28.3089 13.1077C28.3017 11.0132 27.11 9.87207 25.8461 9.87207ZM25.4128 14.8482C24.9866 14.8482 24.7339 14.6965 24.5605 14.5087L24.5533 11.8293C24.7411 11.6198 25.0011 11.4754 25.4128 11.4754C26.07 11.4754 26.525 12.212 26.525 13.1581C26.525 14.1259 26.0772 14.8482 25.4128 14.8482ZM20.2633 9.44593L22.0761 9.05594V7.58984L20.2633 7.97262V9.44593ZM20.2633 9.9948H22.0761V16.3142H20.2633V9.9948ZM18.3206 10.5293L18.205 9.9948H16.645V16.3142H18.4506V12.0315C18.8767 11.4753 19.5989 11.5765 19.8228 11.6559V9.9948C19.5917 9.90817 18.7467 9.74928 18.3206 10.5293ZM14.7095 8.4276L12.9472 8.80316L12.94 14.5881C12.94 15.657 13.7417 16.4443 14.8106 16.4443C15.4028 16.4443 15.8361 16.3359 16.0745 16.2059V14.7398C15.8434 14.8337 14.7023 15.1659 14.7023 14.0971V11.5332H16.0745V9.99485H14.7023L14.7095 8.4276ZM9.82724 11.8293C9.82724 11.5476 10.0583 11.4393 10.4411 11.4393C10.99 11.4393 11.6833 11.6054 12.2322 11.9015V10.2043C11.6328 9.96596 11.0406 9.87207 10.4411 9.87207C8.97501 9.87207 8 10.6376 8 11.9159C8 13.9093 10.7445 13.5915 10.7445 14.4509C10.7445 14.7832 10.4556 14.8915 10.0511 14.8915C9.45168 14.8915 8.68613 14.6459 8.07947 14.3137V16.0326C8.75113 16.3215 9.43005 16.4443 10.0511 16.4443C11.5533 16.4443 12.5861 15.7004 12.5861 14.4076C12.5789 12.2554 9.82724 12.6382 9.82724 11.8293Z" fill="#635BFF"/>
</svg>
