<svg width="126" height="126" viewBox="0 0 126 126" fill="none" xmlns="http://www.w3.org/2000/svg">
<rect width="126" height="126" rx="63" fill="#F7F7F7"/>
<path d="M63 65.4375C60.1075 65.4375 57.2799 64.5798 54.8748 62.9727C52.4697 61.3657 50.5952 59.0816 49.4883 56.4093C48.3813 53.7369 48.0917 50.7963 48.656 47.9593C49.2203 45.1223 50.6132 42.5164 52.6586 40.4711C54.7039 38.4257 57.3098 37.0328 60.1468 36.4685C62.9838 35.9042 65.9244 36.1938 68.5967 37.3008C71.2691 38.4077 73.5532 40.2822 75.1602 42.6873C76.7673 45.0924 77.625 47.92 77.625 50.8125C77.625 54.6913 76.0842 58.4112 73.3414 61.1539C70.5987 63.8967 66.8788 65.4375 63 65.4375ZM63 41.0625C61.0716 41.0625 59.1866 41.6343 57.5832 42.7057C55.9798 43.777 54.7301 45.2998 53.9922 47.0813C53.2542 48.8629 53.0611 50.8233 53.4373 52.7146C53.8136 54.606 54.7422 56.3432 56.1057 57.7068C57.4693 59.0704 59.2066 59.999 61.0979 60.3752C62.9892 60.7514 64.9496 60.5583 66.7312 59.8203C68.5127 59.0824 70.0355 57.8327 71.1068 56.2293C72.1782 54.6259 72.75 52.7409 72.75 50.8125C72.75 48.2266 71.7228 45.7467 69.8943 43.9182C68.0658 42.0897 65.5859 41.0625 63 41.0625Z" fill="#CCCCCC"/>
<path d="M63.0025 99.5621C57.5972 99.5585 52.2599 98.3565 47.375 96.0425C42.49 93.7286 38.1788 90.3603 34.7519 86.1802L33.4844 84.6202L34.7519 83.0846C38.1817 78.9099 42.4942 75.5473 47.379 73.2386C52.2638 70.9299 57.5996 69.7324 63.0025 69.7324C68.4054 69.7324 73.7412 70.9299 78.626 73.2386C83.5108 75.5473 87.8233 78.9099 91.2531 83.0846L92.5206 84.6202L91.2531 86.1802C87.8262 90.3603 83.515 93.7286 78.63 96.0425C73.7451 98.3565 68.4078 99.5585 63.0025 99.5621ZM39.8706 84.6446C42.8352 87.8183 46.4205 90.3487 50.404 92.0787C54.3874 93.8087 58.684 94.7014 63.0269 94.7014C67.3698 94.7014 71.6663 93.8087 75.6498 92.0787C79.6332 90.3487 83.2186 87.8183 86.1831 84.6446C83.2186 81.4709 79.6332 78.9406 75.6498 77.2105C71.6663 75.4805 67.3698 74.5878 63.0269 74.5878C58.684 74.5878 54.3874 75.4805 50.404 77.2105C46.4205 78.9406 42.8352 81.4709 39.8706 84.6446Z" fill="#CCCCCC"/>
<path d="M63.001 99.5625C54.6958 99.5681 46.6362 96.7459 40.1486 91.5605C33.6611 86.3751 29.1323 79.1355 27.3075 71.0333C25.4828 62.931 26.4708 54.449 30.1091 46.9831C33.7473 39.5172 39.819 33.5125 47.3247 29.9571C54.8304 26.4018 63.3229 25.5077 71.4044 27.4221C79.486 29.3365 86.675 33.9453 91.7882 40.4898C96.9014 47.0344 99.6341 55.1248 99.5366 63.4294C99.439 71.734 96.5171 79.758 91.2516 86.1806C87.8246 90.3607 83.5135 93.729 78.6285 96.0429C73.7435 98.3569 68.4063 99.5589 63.001 99.5625ZM63.001 31.3125C56.7338 31.3125 50.6073 33.171 45.3963 36.6528C40.1854 40.1347 36.1239 45.0836 33.7255 50.8737C31.3272 56.6639 30.6997 63.0352 31.9223 69.1819C33.145 75.3287 36.1629 80.9749 40.5945 85.4065C45.0261 89.838 50.6723 92.856 56.819 94.0787C62.9658 95.3013 69.3371 94.6738 75.1272 92.2755C80.9174 89.8771 85.8663 85.8156 89.3482 80.6047C92.83 75.3937 94.6885 69.2672 94.6885 63C94.6885 54.596 91.35 46.5361 85.4074 40.5936C79.4649 34.651 71.405 31.3125 63.001 31.3125Z" fill="#CCCCCC"/>
<path d="M36.625 84.6453C36.625 84.6453 61.1706 112.067 86.155 87.3753L89.3725 84.6453C89.3725 84.6453 68.5075 63.0003 47.3256 75.9922L36.625 84.6453Z" fill="#CCCCCC"/>
<path d="M63 63C69.731 63 75.1875 57.5435 75.1875 50.8125C75.1875 44.0815 69.731 38.625 63 38.625C56.269 38.625 50.8125 44.0815 50.8125 50.8125C50.8125 57.5435 56.269 63 63 63Z" fill="#CCCCCC"/>
</svg>
