<svg width="20" height="20" viewBox="0 0 20 20" fill="none" xmlns="http://www.w3.org/2000/svg">
<path d="M15.6642 12.707H7C6.83424 12.707 6.67527 12.6412 6.55806 12.524C6.44085 12.4068 6.375 12.2478 6.375 12.082C6.375 11.9163 6.44085 11.7573 6.55806 11.6401C6.67527 11.5229 6.83424 11.457 7 11.457H15.6642C15.8064 11.4577 15.9446 11.4095 16.0555 11.3205C16.1664 11.2314 16.2433 11.1069 16.2733 10.9679L17.5542 5.20703H5.5C5.33424 5.20703 5.17527 5.14118 5.05806 5.02397C4.94085 4.90676 4.875 4.74779 4.875 4.58203C4.875 4.41627 4.94085 4.2573 5.05806 4.14009C5.17527 4.02288 5.33424 3.95703 5.5 3.95703H17.8142C17.97 3.95737 18.1238 3.99263 18.2643 4.06021C18.4047 4.12779 18.5282 4.22598 18.6257 4.34755C18.7233 4.46913 18.7923 4.61101 18.8278 4.76277C18.8633 4.91453 18.8643 5.07232 18.8308 5.22453L17.4942 11.2387C17.4035 11.656 17.1723 12.0296 16.8391 12.2969C16.506 12.5641 16.0912 12.7089 15.6642 12.707Z" fill="#1F1C1E"/>
<path d="M16.668 15.2079H8.18464C7.84777 15.2073 7.52145 15.0903 7.26087 14.8768C7.0003 14.6633 6.82147 14.3664 6.75464 14.0362L4.52297 2.87453C4.51339 2.82739 4.48785 2.785 4.45066 2.75449C4.41347 2.72398 4.3669 2.70722 4.3188 2.70703H1.66797C1.50221 2.70703 1.34324 2.64118 1.22603 2.52397C1.10882 2.40676 1.04297 2.24779 1.04297 2.08203C1.04297 1.91627 1.10882 1.7573 1.22603 1.64009C1.34324 1.52288 1.50221 1.45703 1.66797 1.45703H4.31797C4.65484 1.45763 4.98116 1.57457 5.24173 1.78807C5.5023 2.00157 5.68113 2.29853 5.74797 2.6287L7.97964 13.7912C7.98922 13.8383 8.01475 13.8807 8.05194 13.9112C8.08913 13.9418 8.1357 13.9585 8.1838 13.9587H16.668C16.8337 13.9587 16.9927 14.0245 17.1099 14.1418C17.2271 14.259 17.293 14.4179 17.293 14.5837C17.293 14.7495 17.2271 14.9084 17.1099 15.0256C16.9927 15.1429 16.8337 15.2079 16.668 15.2079Z" fill="#1F1C1E"/>
<path d="M8.75 18.332C9.44036 18.332 10 17.7724 10 17.082C10 16.3917 9.44036 15.832 8.75 15.832C8.05964 15.832 7.5 16.3917 7.5 17.082C7.5 17.7724 8.05964 18.332 8.75 18.332Z" fill="#1F1C1E"/>
<path d="M15 18.332C15.6904 18.332 16.25 17.7724 16.25 17.082C16.25 16.3917 15.6904 15.832 15 15.832C14.3096 15.832 13.75 16.3917 13.75 17.082C13.75 17.7724 14.3096 18.332 15 18.332Z" fill="#1F1C1E"/>
</svg>
