<svg width="16" height="15" viewBox="0 0 16 15" fill="none" xmlns="http://www.w3.org/2000/svg">
<path d="M2.17562 14.1415L2.19392 13.4417H2.19391L2.17562 14.1415ZM1.35608 13.2114L0.658199 13.1571V13.1571L1.35608 13.2114ZM3.19165 8.79698L2.67726 8.32221L3.19165 8.79698ZM1.37408 12.9804L2.07197 13.0348L1.37408 12.9804ZM7.16578 12.2702L6.68018 11.766L7.16578 12.2702ZM2.36227 14.1464L2.34397 14.8461H2.34398L2.36227 14.1464ZM14.4093 3.08793L15.0273 2.75916L14.4093 3.08793ZM13.4349 6.23199L13.9205 6.73616L13.4349 6.23199ZM14.3789 5.20112L13.7707 4.85451L14.3789 5.20112ZM12.4589 1.09553L12.7987 0.483525L12.4589 1.09553ZM9.38117 2.09095L9.89556 2.56572L9.38117 2.09095ZM10.3903 1.1266L10.0325 0.524963L10.3903 1.1266ZM9.16034 1.67234C8.88697 1.39898 8.44375 1.39898 8.17039 1.67234C7.89702 1.94571 7.89702 2.38893 8.17039 2.66229L9.16034 1.67234ZM12.8371 7.32896C13.1104 7.60233 13.5536 7.60233 13.827 7.32896C14.1004 7.05559 14.1004 6.61238 13.827 6.33901L12.8371 7.32896ZM9.33203 13.4673C8.94543 13.4673 8.63203 13.7807 8.63203 14.1673C8.63203 14.5539 8.94543 14.8673 9.33203 14.8673V13.4673ZM14.6654 14.8673C15.052 14.8673 15.3654 14.5539 15.3654 14.1673C15.3654 13.7807 15.052 13.4673 14.6654 13.4673V14.8673ZM12.9493 5.72782L6.68018 11.766L7.65138 12.7744L13.9205 6.73616L12.9493 5.72782ZM3.70604 9.27175L9.89556 2.56572L8.86678 1.61618L2.67726 8.32221L3.70604 9.27175ZM2.38057 13.4466L2.19392 13.4417L2.15732 14.8413L2.34397 14.8461L2.38057 13.4466ZM2.05397 13.2658L2.07197 13.0348L0.676197 12.926L0.658199 13.1571L2.05397 13.2658ZM2.19391 13.4417C2.0868 13.4389 2.00542 13.4368 1.93625 13.4331C1.86665 13.4295 1.82764 13.4252 1.80578 13.4215C1.78435 13.4179 1.79967 13.4182 1.83199 13.4332C1.87037 13.451 1.91484 13.4813 1.95295 13.5246L0.902558 14.4501C1.11203 14.6879 1.37447 14.7689 1.5754 14.8024C1.7546 14.8323 1.96924 14.8363 2.15732 14.8413L2.19391 13.4417ZM0.658199 13.1571C0.643172 13.3499 0.624943 13.5648 0.635054 13.7462C0.646209 13.9464 0.695175 14.2148 0.902558 14.4501L1.95295 13.5246C1.99091 13.5676 2.0142 13.614 2.02615 13.6507C2.03611 13.6812 2.03426 13.693 2.03288 13.6683C2.03149 13.6433 2.03148 13.6014 2.03526 13.5296C2.03902 13.4583 2.04548 13.3747 2.05397 13.2658L0.658199 13.1571ZM2.67726 8.32221C1.90243 9.1617 1.39773 9.69529 1.10581 10.3672L2.38986 10.9251C2.56559 10.5206 2.86755 10.1802 3.70604 9.27175L2.67726 8.32221ZM2.07197 13.0348C2.16892 11.7903 2.21361 11.3307 2.38986 10.9251L1.10581 10.3672C0.814419 11.0379 0.765819 11.7757 0.676197 12.926L2.07197 13.0348ZM6.68018 11.766C5.63988 12.768 5.25269 13.1235 4.7894 13.3044L5.29875 14.6085C6.08337 14.302 6.69468 13.6958 7.65138 12.7744L6.68018 11.766ZM2.34398 14.8461C3.65811 14.8805 4.51256 14.9156 5.29875 14.6085L4.7894 13.3044C4.32766 13.4848 3.81022 13.484 2.38057 13.4466L2.34398 14.8461ZM12.9952 2.51883C13.5418 3.07729 13.7047 3.25394 13.7913 3.41671L15.0273 2.75916C14.8222 2.37366 14.4731 2.02722 13.9956 1.53949L12.9952 2.51883ZM13.9205 6.73616C14.4117 6.26304 14.7709 5.92708 14.9871 5.54772L13.7707 4.85451C13.6796 5.01443 13.5119 5.18596 12.9493 5.72782L13.9205 6.73616ZM13.7913 3.41671C14.0306 3.86639 14.0226 4.41259 13.7707 4.85451L14.9871 5.54772C15.4768 4.68843 15.4919 3.6324 15.0273 2.75916L13.7913 3.41671ZM13.9956 1.53949C13.5191 1.05273 13.1788 0.694557 12.7987 0.483525L12.1192 1.70754C12.2758 1.79448 12.4475 1.95939 12.9952 2.51883L13.9956 1.53949ZM9.89556 2.56572C10.4268 1.99014 10.5939 1.81996 10.7481 1.72824L10.0325 0.524963C9.6588 0.747206 9.32912 1.11527 8.86678 1.61618L9.89556 2.56572ZM12.7987 0.483525C11.9332 0.00303358 10.8834 0.0189278 10.0325 0.524963L10.7481 1.72824C11.171 1.47672 11.6896 1.46906 12.1192 1.70754L12.7987 0.483525ZM8.17039 2.66229L12.8371 7.32896L13.827 6.33901L9.16034 1.67234L8.17039 2.66229ZM9.33203 14.8673H14.6654V13.4673H9.33203V14.8673Z" fill="url(#paint0_linear_2603_607)" style="mix-blend-mode:multiply"/>
<defs>
<linearGradient id="paint0_linear_2603_607" x1="1.33203" y1="7.50065" x2="14.6654" y2="7.50065" gradientUnits="userSpaceOnUse">
<stop stop-color="#212674"/>
<stop offset="0.348958" stop-color="#2760AA"/>
<stop offset="0.755208" stop-color="#D750A0"/>
</linearGradient>
</defs>
</svg>
