<svg width="14" height="14" viewBox="0 0 14 14" fill="none" xmlns="http://www.w3.org/2000/svg">
<path d="M6.9974 1.16602C3.78323 1.16602 1.16406 3.78518 1.16406 6.99935C1.16406 10.2135 3.78323 12.8327 6.9974 12.8327C10.2116 12.8327 12.8307 10.2135 12.8307 6.99935C12.8307 3.78518 10.2116 1.16602 6.9974 1.16602ZM9.78573 5.65768L6.47823 8.96518C6.39656 9.04685 6.28573 9.09352 6.16906 9.09352C6.0524 9.09352 5.94156 9.04685 5.8599 8.96518L4.20906 7.31435C4.0399 7.14518 4.0399 6.86518 4.20906 6.69602C4.37823 6.52685 4.65823 6.52685 4.8274 6.69602L6.16906 8.03768L9.1674 5.03935C9.33656 4.87018 9.61656 4.87018 9.78573 5.03935C9.9549 5.20852 9.9549 5.48268 9.78573 5.65768Z" fill="#3A7E25"/>
</svg>
