<svg width="33" height="32" viewBox="0 0 33 32" fill="none" xmlns="http://www.w3.org/2000/svg">
<path d="M30.3928 9.93848C30.3934 9.67571 30.3419 9.41542 30.2412 9.1727C30.1405 8.92998 29.9927 8.70965 29.8063 8.52448L28.1283 6.84598L29.4283 5.54598C29.7555 5.21799 29.9393 4.77357 29.9393 4.31023C29.9393 3.84689 29.7555 3.40247 29.4283 3.07448C29.2734 2.87905 29.0792 2.71831 28.8583 2.60266C28.6374 2.487 28.3947 2.41901 28.1458 2.40308C27.897 2.38715 27.6476 2.42364 27.4137 2.51018C27.1799 2.59672 26.9668 2.73139 26.7883 2.90548L25.4883 4.20548L23.8093 2.52698C23.4342 2.15204 22.9256 1.94141 22.3953 1.94141C21.8649 1.94141 21.3563 2.15204 20.9813 2.52698L19.4858 4.02248C17.0328 1.72248 13.2808 5.56598 15.6508 7.96448L18.6903 11.0035L11.3353 18.3585L8.29626 15.3195C5.90126 12.9515 2.05976 16.6945 4.35426 19.1535L2.85926 20.649C2.67353 20.8347 2.5262 21.0552 2.42569 21.2978C2.32517 21.5405 2.27344 21.8006 2.27344 22.0632C2.27344 22.3259 2.32517 22.586 2.42569 22.8286C2.5262 23.0713 2.67353 23.2918 2.85926 23.4775L4.53726 25.156L3.23726 26.456C1.60776 28.114 4.20926 30.7325 5.87726 29.097L7.17726 27.7965L8.85626 29.475C9.23132 29.8499 9.73993 30.0606 10.2703 30.0606C10.8006 30.0606 11.3092 29.8499 11.6843 29.475L13.1798 27.9795C15.6328 30.2795 19.3848 26.4355 17.0148 24.0375L13.9753 20.9985L21.3303 13.6435L24.3693 16.6825C24.6336 16.9394 24.9492 17.1376 25.2955 17.2639C25.6418 17.3903 26.0109 17.442 26.3785 17.4156C26.7462 17.3893 27.1042 17.2855 27.4289 17.111C27.7536 16.9366 28.0378 16.6955 28.2628 16.4035C28.7311 15.9333 28.9981 15.2994 29.0071 14.6358C29.0162 13.9722 28.7666 13.3312 28.3113 12.8485L29.8063 11.353C29.9927 11.1677 30.1404 10.9473 30.241 10.7045C30.3416 10.4616 30.3935 10.2013 30.3928 9.93848ZM27.4943 3.61248C28.2043 2.89148 29.4418 4.12748 28.7208 4.83848L27.4208 6.13848L26.1948 4.91248L27.4943 3.61248ZM5.17076 28.3895C4.46076 29.1105 3.22326 27.8745 3.94426 27.1635L5.24426 25.8635L6.47026 27.0895L5.17076 28.3895ZM10.9773 28.768C10.7867 28.9497 10.5335 29.051 10.2703 29.051C10.007 29.051 9.7538 28.9497 9.56326 28.768L3.56626 22.7705C3.37985 22.5823 3.27528 22.3281 3.27528 22.0632C3.27528 21.7983 3.37985 21.5442 3.56626 21.356L5.05626 19.866L12.4678 27.2775L10.9773 28.768ZM16.3073 26.945C16.1513 27.1702 15.9427 27.3539 15.6995 27.4801C15.4564 27.6062 15.1861 27.6711 14.9122 27.6691C14.6383 27.667 14.369 27.598 14.1278 27.4682C13.8866 27.3383 13.6808 27.1515 13.5283 26.924L5.10976 18.506C4.94655 18.3334 4.82296 18.1273 4.74763 17.902C4.6723 17.6767 4.64703 17.4377 4.6736 17.2017C4.70016 16.9656 4.77792 16.7382 4.90144 16.5354C5.02496 16.3325 5.19127 16.159 5.38876 16.027C5.68074 15.7357 6.07633 15.5721 6.48876 15.5721C6.90119 15.5721 7.29678 15.7357 7.58876 16.027L16.3078 24.7445C16.5989 25.0365 16.7624 25.4321 16.7624 25.8445C16.7624 26.2569 16.5989 26.6524 16.3078 26.9445L16.3073 26.945ZM20.6233 12.937L13.2683 20.291L12.0423 19.0645L19.3973 11.7095L20.6233 12.937ZM27.5558 15.6965C27.4238 15.8941 27.2503 16.0604 27.0473 16.184C26.8444 16.3076 26.6169 16.3854 26.3808 16.4119C26.1447 16.4385 25.9056 16.4132 25.6803 16.3378C25.455 16.2624 25.2488 16.1388 25.0763 15.9755L16.3583 7.25748C16.067 6.9655 15.9034 6.56991 15.9034 6.15748C15.9034 5.74505 16.067 5.34946 16.3583 5.05748C16.5192 4.84027 16.7266 4.66162 16.9652 4.53448C17.2038 4.40735 17.4677 4.33493 17.7378 4.32248C18.0126 4.33639 18.2808 4.41138 18.523 4.54198C18.7651 4.67258 18.9752 4.85552 19.1378 5.07748L27.2563 13.1965L27.5563 13.4965C27.8475 13.7885 28.0111 14.1841 28.0111 14.5965C28.0111 15.0089 27.847 15.4045 27.5558 15.6965ZM29.0993 10.646L27.6093 12.136L20.1978 4.72448L21.6878 3.23448C21.8784 3.0525 22.1317 2.95095 22.3953 2.95095C22.6588 2.95095 22.9122 3.0525 23.1028 3.23448L29.0988 9.23098C29.2852 9.41917 29.3897 9.67335 29.3897 9.93823C29.3897 10.2031 29.2852 10.4573 29.0988 10.6455L29.0993 10.646Z" fill="#535052"/>
</svg>
