<svg width="32" height="32" viewBox="0 0 32 32" fill="none" xmlns="http://www.w3.org/2000/svg">
<path d="M29.446 21.3082C28.7223 21.8123 27.8907 22.14 27.0177 22.265C26.1447 22.39 25.2545 22.3089 24.4185 22.0282C24.3427 22.0013 24.2616 21.9929 24.1819 22.004C24.1023 22.0151 24.0265 22.0451 23.9609 22.0917L21.7109 23.6872L22.2899 24.5028L24.3315 23.0527C25.2856 23.3315 26.2899 23.3938 27.2712 23.2353C28.2526 23.0767 29.1861 22.7013 30.004 22.1362C30.2987 21.9372 30.5779 21.7162 30.8395 21.4752L30.1615 20.7402C29.9377 20.9474 29.6985 21.1373 29.446 21.3082Z" fill="#535052"/>
<path d="M24.4089 13.847C23.6933 14.3043 23.12 14.9528 22.7541 15.7192C22.3881 16.4855 22.2441 17.3391 22.3384 18.1831L15.9999 22.2461L9.66035 18.1856C9.75667 17.3413 9.61337 16.487 9.24685 15.7203C8.88034 14.9537 8.3054 14.3057 7.58783 13.8505C6.63533 13.194 5.47707 12.9052 4.32782 13.0375C3.78572 13.0906 3.26202 13.2627 2.79412 13.5416C2.32622 13.8204 1.92565 14.1991 1.62103 14.6507C1.3164 15.1022 1.11522 15.6154 1.03187 16.1537C0.948508 16.692 0.985023 17.242 1.1388 17.7646C1.44686 18.8792 2.14878 19.8442 3.11431 20.4806C3.80565 20.9762 4.62268 21.2668 5.47167 21.3193C6.32067 21.3717 7.16726 21.1838 7.91434 20.7771L12.8349 24.2706L8.15234 27.2731C7.931 27.4137 7.74015 27.5974 7.59108 27.8131C7.44202 28.0289 7.33777 28.2723 7.28453 28.5291C7.23128 28.7859 7.23011 29.0507 7.2811 29.308C7.33208 29.5652 7.43418 29.8096 7.58133 30.0266C7.72793 30.2432 7.91632 30.4283 8.13545 30.5711C8.35458 30.7138 8.60003 30.8114 8.85737 30.858C9.11472 30.9045 9.37879 30.8992 9.63405 30.8423C9.88932 30.7854 10.1306 30.6781 10.3438 30.5266L15.9999 26.5156L21.6559 30.5296C21.8694 30.6858 22.1121 30.7972 22.3697 30.8573C22.6272 30.9174 22.8942 30.9249 23.1547 30.8793C23.4152 30.8337 23.6639 30.736 23.8857 30.5921C24.1076 30.4481 24.2981 30.2609 24.4458 30.0415C24.5936 29.8222 24.6955 29.5753 24.7456 29.3156C24.7956 29.0559 24.7928 28.7888 24.7371 28.5303C24.6815 28.2717 24.5742 28.0271 24.4218 27.811C24.2693 27.5949 24.0748 27.4118 23.8499 27.2726L19.1619 24.2726L24.0859 20.7776C24.8329 21.1845 25.6794 21.3725 26.5284 21.3203C27.3774 21.268 28.1945 20.9775 28.8859 20.4821C30.941 19.0951 31.612 16.4781 30.3804 14.6481C29.1489 12.818 26.4684 12.46 24.4089 13.847ZM9.76485 29.7131C9.55121 29.8569 9.28982 29.9115 9.03648 29.8653C8.78314 29.8191 8.5579 29.6756 8.40884 29.4656C8.33668 29.3592 8.28664 29.2393 8.26167 29.1132C8.2367 28.9871 8.23731 28.8572 8.26347 28.7313C8.28963 28.6054 8.3408 28.486 8.41396 28.3803C8.48711 28.2745 8.58076 28.1845 8.68934 28.1156L13.7139 24.8936L15.1334 25.9006L9.76485 29.7131ZM23.7349 28.7316C23.7741 28.9213 23.7553 29.1184 23.6809 29.2973C23.6065 29.4762 23.48 29.6285 23.3179 29.7345C23.1557 29.8405 22.9654 29.8952 22.7717 29.8916C22.5781 29.888 22.39 29.8261 22.2319 29.7141L8.21234 19.7641C8.12685 19.7035 8.02448 19.6712 7.91969 19.672C7.8149 19.6727 7.71298 19.7063 7.62833 19.7681C7.03601 20.1546 6.33956 20.3507 5.63256 20.3299C4.92556 20.309 4.24186 20.0723 3.67332 19.6516C2.90836 19.1498 2.35127 18.3877 2.10531 17.5066C1.98761 17.1217 1.95747 16.7153 2.01708 16.3172C2.07668 15.9192 2.22454 15.5395 2.44981 15.2059C2.67509 14.8723 2.9721 14.5934 3.3191 14.3894C3.66609 14.1854 4.0543 14.0616 4.45532 14.027C5.36434 13.925 6.27954 14.156 7.03133 14.6771C7.63399 15.0469 8.10905 15.5924 8.39274 16.2401C8.67642 16.8878 8.75515 17.6068 8.61834 18.3006C8.59264 18.4023 8.59957 18.5095 8.63815 18.607C8.67674 18.7045 8.74502 18.7875 8.83334 18.8441L23.3104 28.1151C23.419 28.184 23.5126 28.2742 23.5855 28.3801C23.6584 28.486 23.7093 28.6056 23.7349 28.7316ZM28.3249 19.6506C27.7562 20.0712 27.0724 20.3078 26.3653 20.3284C25.6582 20.3491 24.9617 20.1528 24.3694 19.7661C24.2848 19.7043 24.1829 19.6707 24.0781 19.67C23.9733 19.6692 23.8709 19.7015 23.7854 19.7621L18.2539 23.6891L16.9279 22.8391L23.1649 18.8391C23.253 18.7825 23.3212 18.6998 23.3598 18.6024C23.3983 18.5051 23.4054 18.3981 23.3799 18.2966C23.2458 17.6027 23.326 16.8844 23.6098 16.2372C23.8937 15.59 24.3677 15.0445 24.9689 14.6731C26.5689 13.5945 28.6259 13.8325 29.5504 15.2021C30.475 16.5716 29.9244 18.5721 28.3249 19.6506ZM6.46333 1.91699L5.90983 1.08398C4.70202 1.88429 3.79623 3.0652 3.33631 4.43916C2.87639 5.81313 2.88871 7.30136 3.37131 8.66752L4.31382 8.33352C3.90573 7.17736 3.89566 5.918 4.2852 4.75546C4.67473 3.59292 5.44154 2.59387 6.46383 1.91699H6.46333ZM5.37482 10.1345C5.13407 9.86142 4.92071 9.56533 4.73782 9.25053L3.87232 9.75053C4.08826 10.1227 4.34031 10.4727 4.62482 10.7955L5.37482 10.1345Z" fill="#535052"/>
<path d="M21.4905 18.1L22.914 10.983C24.0713 10.8823 25.1449 10.3379 25.91 9.46379C26.6752 8.58964 27.0726 7.45347 27.0192 6.293C26.9658 5.13252 26.4656 4.03766 25.6234 3.23751C24.7812 2.43736 23.6622 1.99391 22.5005 1.99996C21.4895 1.99638 20.5074 2.33766 19.7165 2.96746C19.3045 2.36131 18.7505 1.86514 18.1028 1.52221C17.4551 1.17928 16.7334 1 16.0005 1C15.2676 1 14.5458 1.17928 13.8981 1.52221C13.2504 1.86514 12.6964 2.36131 12.2845 2.96746C11.4935 2.33766 10.5115 1.99638 9.50044 1.99996C8.34272 1.99985 7.2295 2.44594 6.39222 3.24549C5.55493 4.04503 5.05801 5.13651 5.00477 6.29301C4.95152 7.44951 5.34604 8.58203 6.10631 9.45513C6.86659 10.3282 7.93411 10.8747 9.08694 10.981L10.5104 18.1L11.4905 17.904L11.2105 16.5H20.7905L20.5105 17.9L21.4905 18.1ZM19.077 15.5L19.4955 12.571L18.5055 12.429L18.067 15.5H16.5005V10H15.5005V15.5H13.934L13.4955 12.429L12.5055 12.571L12.924 15.5H11.0104L9.99044 10.4C9.96739 10.2871 9.90603 10.1856 9.81673 10.1127C9.72744 10.0398 9.61571 9.99997 9.50044 10C8.57218 10 7.68194 9.63125 7.02556 8.97487C6.36918 8.31848 6.00042 7.42824 6.00042 6.49998C6.00042 5.57172 6.36918 4.68147 7.02556 4.02509C7.68194 3.36871 8.57218 2.99996 9.50044 2.99996C9.97693 2.99874 10.4486 3.0958 10.8859 3.28506C11.3231 3.47433 11.7167 3.75174 12.042 4.09997C12.0975 4.15874 12.1665 4.20315 12.243 4.22938C12.3196 4.25562 12.4013 4.26291 12.4812 4.25062C12.5612 4.23833 12.6369 4.20682 12.702 4.15881C12.7671 4.1108 12.8196 4.04772 12.855 3.97497C13.1406 3.38343 13.5872 2.88442 14.1436 2.53522C14.7 2.18603 15.3436 2.0008 16.0005 2.0008C16.6574 2.0008 17.3009 2.18603 17.8573 2.53522C18.4137 2.88442 18.8604 3.38343 19.146 3.97497C19.1813 4.04772 19.2338 4.1108 19.2989 4.15881C19.364 4.20682 19.4398 4.23833 19.5197 4.25062C19.5997 4.26291 19.6814 4.25562 19.7579 4.22938C19.8344 4.20315 19.9034 4.15874 19.959 4.09997C20.2842 3.75174 20.6778 3.47433 21.1151 3.28506C21.5524 3.0958 22.024 2.99874 22.5005 2.99996C23.4288 2.99996 24.319 3.36871 24.9754 4.02509C25.6318 4.68147 26.0005 5.57172 26.0005 6.49998C26.0005 7.42824 25.6318 8.31848 24.9754 8.97487C24.319 9.63125 23.4288 10 22.5005 10C22.3852 9.99997 22.2735 10.0398 22.1842 10.1127C22.0949 10.1856 22.0336 10.2871 22.0105 10.4L20.9905 15.5H19.077Z" fill="#535052"/>
</svg>
