<svg width="119" height="47" viewBox="0 0 119 47" fill="none" xmlns="http://www.w3.org/2000/svg">
<rect width="119" height="47" rx="23.5" fill="#409BD8"/>
<path d="M78.5195 19.4961H74.7832C74.5634 19.4961 74.3437 19.7099 74.2338 19.9237L72.6953 29.3309C72.6953 29.5447 72.8052 29.6516 73.025 29.6516H75.003C75.2228 29.6516 75.3327 29.5447 75.3327 29.3309L75.7722 26.6584C75.7722 26.4446 75.992 26.2308 76.3217 26.2308H77.5305C80.0579 26.2308 81.4865 25.0549 81.8162 22.7031C82.036 21.741 81.8162 20.8858 81.3766 20.3513C80.7173 19.8168 79.7283 19.4961 78.5195 19.4961ZM78.959 23.0238C78.7393 24.3066 77.7503 24.3066 76.7612 24.3066H76.1019L76.5415 21.8479C76.5415 21.741 76.6514 21.6341 76.8711 21.6341H77.0909C77.7503 21.6341 78.4096 21.6341 78.7393 22.0617C78.959 22.1686 78.959 22.4893 78.959 23.0238Z" fill="white"/>
<path d="M51.5937 19.4961H47.8574C47.6377 19.4961 47.4179 19.7099 47.308 19.9237L45.7695 29.3309C45.7695 29.5447 45.8794 29.6516 46.0992 29.6516H47.8574C48.0772 29.6516 48.297 29.4378 48.4069 29.224L48.8465 26.6584C48.8465 26.4446 49.0662 26.2308 49.3959 26.2308H50.6047C53.1322 26.2308 54.5607 25.0549 54.8904 22.7031C55.1102 21.741 54.8904 20.8858 54.4508 20.3513C53.7915 19.8168 52.9124 19.4961 51.5937 19.4961ZM52.0333 23.0238C51.8135 24.3066 50.8245 24.3066 49.8355 24.3066H49.286L49.7256 21.8479C49.7256 21.741 49.8355 21.6341 50.0552 21.6341H50.275C50.9344 21.6341 51.5937 21.6341 51.9234 22.0617C52.0333 22.1686 52.1432 22.4893 52.0333 23.0238ZM62.9124 22.9169H61.1541C61.0443 22.9169 60.8245 23.0238 60.8245 23.1307L60.7146 23.6652L60.6047 23.4514C60.1651 22.9169 59.3959 22.7031 58.5168 22.7031C56.5388 22.7031 54.7805 24.1997 54.4508 26.2308C54.2311 27.2998 54.5607 28.2619 55.1102 28.9033C55.6596 29.5447 56.4289 29.7585 57.4179 29.7585C59.0662 29.7585 59.9454 28.7964 59.9454 28.7964L59.8355 29.3309C59.8355 29.5447 59.9454 29.6516 60.1651 29.6516H61.8135C62.0333 29.6516 62.253 29.4378 62.3629 29.224L63.3519 23.2376C63.2421 23.1307 63.0223 22.9169 62.9124 22.9169ZM60.3849 26.3377C60.1651 27.2998 59.3959 28.0481 58.297 28.0481C57.7476 28.0481 57.308 27.8343 57.0882 27.6205C56.8684 27.2998 56.7585 26.8722 56.7585 26.3377C56.8684 25.3756 57.7476 24.6273 58.7366 24.6273C59.286 24.6273 59.6157 24.8411 59.9454 25.0549C60.275 25.3756 60.3849 25.9101 60.3849 26.3377Z" fill="white"/>
<path d="M89.714 22.9091H87.9557C87.8458 22.9091 87.6261 23.016 87.6261 23.1229L87.5162 23.6574L87.4063 23.4436C86.9667 22.9091 86.1975 22.6953 85.3184 22.6953C83.3403 22.6953 81.5821 24.1919 81.2524 26.223C81.0327 27.292 81.3623 28.2541 81.9118 28.8955C82.4612 29.5369 83.2305 29.7507 84.2195 29.7507C85.8678 29.7507 86.7469 28.7886 86.7469 28.7886L86.637 29.3231C86.637 29.5369 86.7469 29.6438 86.9667 29.6438H88.6151C88.8349 29.6438 89.0546 29.43 89.1645 29.2162L90.1535 23.2298C90.0436 23.1229 89.9338 22.9091 89.714 22.9091ZM87.1865 26.3299C86.9667 27.292 86.1975 28.0403 85.0986 28.0403C84.5491 28.0403 84.1096 27.8265 83.8898 27.6127C83.67 27.292 83.5601 26.8644 83.5601 26.3299C83.67 25.3678 84.5491 24.6195 85.5381 24.6195C86.0876 24.6195 86.4173 24.8333 86.7469 25.0471C87.1865 25.3678 87.2964 25.9023 87.1865 26.3299Z" fill="white"/>
<path d="M72.4772 22.9141H70.609C70.3892 22.9141 70.2794 23.021 70.1695 23.1279L67.7519 26.7625L66.653 23.3417C66.5431 23.1279 66.4332 23.021 66.1035 23.021H64.3453C64.1255 23.021 64.0156 23.2348 64.0156 23.4486L65.9936 29.1143L64.1255 31.6799C64.0156 31.8937 64.1255 32.2144 64.3453 32.2144H66.1035C66.3233 32.2144 66.4332 32.1075 66.5431 32.0006L72.5871 23.5555C72.9167 23.2348 72.6969 22.9141 72.4772 22.9141Z" fill="white"/>
<path d="M91.8119 19.8085L90.2734 29.4295C90.2734 29.6433 90.3833 29.7502 90.6031 29.7502H92.1416C92.3613 29.7502 92.5811 29.5364 92.691 29.3226L94.2295 19.9154C94.2295 19.7016 94.1196 19.5947 93.8998 19.5947H92.1416C92.0317 19.4878 91.9218 19.5947 91.8119 19.8085Z" fill="white"/>
<path d="M37.6374 16.2828C36.8681 15.4276 35.4396 15 33.4615 15H27.967C27.6374 15 27.3077 15.3207 27.1978 15.6414L25 29.6453C25 29.966 25.2198 30.1798 25.4396 30.1798H28.8462L29.7253 24.9417V25.1555C29.8352 24.8348 30.1648 24.5141 30.4945 24.5141H32.1429C35.3297 24.5141 37.7472 23.2313 38.5165 19.7036V19.3829C38.4066 19.3829 38.4066 19.3829 38.5165 19.3829C38.6264 17.9932 38.4066 17.138 37.6374 16.2828Z" fill="white"/>
<path d="M38.4057 19.3809V19.7016C37.6365 23.3362 35.2189 24.5121 32.0321 24.5121H30.3838C30.0541 24.5121 29.7244 24.8328 29.6145 25.1535L28.5156 31.6743C28.5156 31.8881 28.6255 32.1019 28.9552 32.1019H31.8123C32.142 32.1019 32.4717 31.8881 32.4717 31.5674V31.4605L33.0211 28.1466V27.9328C33.0211 27.6121 33.3508 27.3983 33.6805 27.3983H34.12C36.8673 27.3983 39.0651 26.3294 39.6145 23.1224C39.8343 21.8396 39.7244 20.6637 39.0651 19.9154C38.9552 19.7016 38.7354 19.4878 38.4057 19.3809Z" fill="#C5E0F3"/>
<path d="M37.6269 19.059C37.517 19.059 37.4072 18.9521 37.2973 18.9521C37.1874 18.9521 37.0775 18.9521 36.9676 18.8452C36.528 18.7383 36.0885 18.7383 35.539 18.7383H31.2533C31.1434 18.7383 31.0335 18.7383 30.9236 18.8452C30.7039 18.9521 30.594 19.1659 30.594 19.3797L29.7148 24.9385V25.1523C29.8247 24.8316 30.1544 24.5109 30.4841 24.5109H32.1324C35.3192 24.5109 37.7368 23.2281 38.5061 19.7004C38.5061 19.5935 38.5061 19.4866 38.6159 19.3797C38.3962 19.2728 38.2863 19.1659 38.0665 19.1659C37.7368 19.059 37.7368 19.059 37.6269 19.059Z" fill="white"/>
</svg>
