<svg width="42" height="26" viewBox="0 0 42 26" fill="none" xmlns="http://www.w3.org/2000/svg">
<rect x="0.269231" y="0.269231" width="41.4615" height="25.4615" fill="white"/>
<rect x="0.269231" y="0.269231" width="41.4615" height="25.4615" stroke="#DCDCDC" stroke-width="0.538462"/>
<path d="M28.4774 11.2324H26.9082C26.8159 11.2324 26.7236 11.3385 26.6774 11.4447L26.0312 16.1141C26.0312 16.2202 26.0774 16.2732 26.1697 16.2732H27.0005C27.0928 16.2732 27.1389 16.2202 27.1389 16.1141L27.3236 14.7875C27.3236 14.6814 27.4159 14.5753 27.5543 14.5753H28.062C29.1236 14.5753 29.7236 13.9916 29.862 12.8243C29.9543 12.3467 29.862 11.9222 29.6774 11.6569C29.4005 11.3916 28.9851 11.2324 28.4774 11.2324ZM28.662 12.9834C28.5697 13.6202 28.1543 13.6202 27.7389 13.6202H27.462L27.6466 12.3998C27.6466 12.3467 27.6928 12.2936 27.7851 12.2936H27.8774C28.1543 12.2936 28.4312 12.2936 28.5697 12.5059C28.662 12.559 28.662 12.7181 28.662 12.9834Z" fill="#139AD6"/>
<path d="M17.1688 11.2324H15.5996C15.5073 11.2324 15.415 11.3385 15.3688 11.4447L14.7227 16.1141C14.7227 16.2202 14.7688 16.2732 14.8611 16.2732H15.5996C15.6919 16.2732 15.7842 16.1671 15.8303 16.061L16.015 14.7875C16.015 14.6814 16.1073 14.5753 16.2457 14.5753H16.7534C17.815 14.5753 18.415 13.9916 18.5534 12.8243C18.6457 12.3467 18.5534 11.9222 18.3688 11.6569C18.0919 11.3916 17.7227 11.2324 17.1688 11.2324ZM17.3534 12.9834C17.2611 13.6202 16.8457 13.6202 16.4303 13.6202H16.1996L16.3842 12.3998C16.3842 12.3467 16.4303 12.2936 16.5227 12.2936H16.615C16.8919 12.2936 17.1688 12.2936 17.3073 12.5059C17.3534 12.559 17.3996 12.7181 17.3534 12.9834ZM21.9227 12.9304H21.1842C21.138 12.9304 21.0457 12.9834 21.0457 13.0365L20.9996 13.3018L20.9534 13.1957C20.7688 12.9304 20.4457 12.8243 20.0765 12.8243C19.2457 12.8243 18.5073 13.5671 18.3688 14.5753C18.2765 15.1059 18.415 15.5834 18.6457 15.9018C18.8765 16.2202 19.1996 16.3263 19.615 16.3263C20.3073 16.3263 20.6765 15.8487 20.6765 15.8487L20.6303 16.1141C20.6303 16.2202 20.6765 16.2732 20.7688 16.2732H21.4611C21.5534 16.2732 21.6457 16.1671 21.6919 16.061L22.1073 13.0896C22.0611 13.0365 21.9688 12.9304 21.9227 12.9304ZM20.8611 14.6283C20.7688 15.1059 20.4457 15.4773 19.9842 15.4773C19.7534 15.4773 19.5688 15.3712 19.4765 15.2651C19.3842 15.1059 19.338 14.8936 19.338 14.6283C19.3842 14.1508 19.7534 13.7794 20.1688 13.7794C20.3996 13.7794 20.538 13.8855 20.6765 13.9916C20.815 14.1508 20.8611 14.4161 20.8611 14.6283Z" fill="#263B80"/>
<path d="M33.1804 12.9264H32.442C32.3958 12.9264 32.3035 12.9795 32.3035 13.0326L32.2573 13.2979L32.2112 13.1917C32.0266 12.9264 31.7035 12.8203 31.3343 12.8203C30.5035 12.8203 29.765 13.5632 29.6266 14.5713C29.5343 15.1019 29.6727 15.5795 29.9035 15.8979C30.1343 16.2162 30.4573 16.3224 30.8727 16.3224C31.565 16.3224 31.9343 15.8448 31.9343 15.8448L31.8881 16.1101C31.8881 16.2162 31.9343 16.2693 32.0266 16.2693H32.7189C32.8112 16.2693 32.9035 16.1632 32.9496 16.057L33.365 13.0856C33.3189 13.0326 33.2727 12.9264 33.1804 12.9264ZM32.1189 14.6244C32.0266 15.1019 31.7035 15.4734 31.242 15.4734C31.0112 15.4734 30.8266 15.3673 30.7343 15.2611C30.642 15.1019 30.5958 14.8897 30.5958 14.6244C30.642 14.1468 31.0112 13.7754 31.4266 13.7754C31.6573 13.7754 31.7958 13.8815 31.9343 13.9877C32.1189 14.1468 32.165 14.4121 32.1189 14.6244Z" fill="#139AD6"/>
<path d="M25.9406 12.9277H25.1559C25.0636 12.9277 25.0175 12.9808 24.9713 13.0339L23.9559 14.8379L23.4944 13.14C23.4483 13.0339 23.4021 12.9808 23.2636 12.9808H22.5252C22.4329 12.9808 22.3867 13.0869 22.3867 13.193L23.2175 16.0053L22.4329 17.2788C22.3867 17.3849 22.4329 17.5441 22.5252 17.5441H23.2636C23.3559 17.5441 23.4021 17.491 23.4483 17.4379L25.9867 13.2461C26.1252 13.0869 26.0329 12.9277 25.9406 12.9277Z" fill="#263B80"/>
<path d="M34.0602 11.3867L33.4141 16.1622C33.4141 16.2683 33.4602 16.3214 33.5525 16.3214H34.1987C34.291 16.3214 34.3833 16.2153 34.4294 16.1092L35.0756 11.4398C35.0756 11.3336 35.0294 11.2806 34.9371 11.2806H34.1987C34.1525 11.2275 34.1064 11.2806 34.0602 11.3867Z" fill="#139AD6"/>
<path d="M11.3077 9.63673C10.9846 9.21224 10.3846 9 9.55385 9H7.24615C7.10769 9 6.96923 9.15918 6.92308 9.31837L6 16.2694C6 16.4286 6.09231 16.5347 6.18462 16.5347H7.61538L7.98461 13.9347V14.0408C8.03077 13.8816 8.16923 13.7224 8.30769 13.7224H9C10.3385 13.7224 11.3538 13.0857 11.6769 11.3347V11.1755C11.6308 11.1755 11.6308 11.1755 11.6769 11.1755C11.7231 10.4857 11.6308 10.0612 11.3077 9.63673Z" fill="#263B80"/>
<path d="M11.6304 11.1738V11.333C11.3073 13.1371 10.2919 13.7208 8.95349 13.7208H8.26118C8.12272 13.7208 7.98425 13.88 7.9381 14.0391L7.47656 17.2759C7.47656 17.382 7.52272 17.4881 7.66118 17.4881H8.86118C8.99964 17.4881 9.1381 17.382 9.1381 17.2228V17.1697L9.36887 15.5248V15.4187C9.36887 15.2595 9.50733 15.1534 9.64579 15.1534H9.83041C10.9843 15.1534 11.9073 14.6228 12.1381 13.031C12.2304 12.3942 12.1843 11.8106 11.9073 11.4391C11.8612 11.333 11.7689 11.2269 11.6304 11.1738Z" fill="#139AD6"/>
<path d="M11.3035 11.0147C11.2574 11.0147 11.2112 10.9616 11.1651 10.9616C11.1189 10.9616 11.0728 10.9616 11.0266 10.9085C10.842 10.8555 10.6574 10.8555 10.4266 10.8555H8.62662C8.58047 10.8555 8.53431 10.8555 8.48816 10.9085C8.39585 10.9616 8.3497 11.0677 8.3497 11.1738L7.98047 13.933V14.0391C8.02662 13.88 8.16508 13.7208 8.30355 13.7208H8.99585C10.3343 13.7208 11.3497 13.084 11.6728 11.333C11.6728 11.28 11.6728 11.2269 11.7189 11.1738C11.6266 11.1208 11.5805 11.0677 11.4882 11.0677C11.3497 11.0147 11.3497 11.0147 11.3035 11.0147Z" fill="#232C65"/>
</svg>
