<svg width="32" height="32" viewBox="0 0 32 32" fill="none" xmlns="http://www.w3.org/2000/svg">
<path d="M30.8191 21.8096C30.1781 21.8947 29.5261 21.8344 28.9116 21.6331C28.3905 21.4582 27.9157 21.168 27.5223 20.7841C27.1376 20.3854 26.6387 20.1157 26.0944 20.0123C26.0522 20.0096 26.0098 20.0096 25.9676 20.0123L25.4604 19.2459C25.7501 19.3101 26.0458 19.3434 26.3425 19.3452C27.1278 19.3604 27.9009 19.1495 28.5697 18.7376C29.2386 18.3257 29.7749 17.7303 30.1147 17.0221C30.4546 16.314 30.5837 15.5231 30.4867 14.7436C30.3896 13.9642 30.0705 13.2291 29.5674 12.6259C29.0643 12.0227 28.3984 11.5769 27.649 11.3416C26.8996 11.1063 26.0984 11.0914 25.3407 11.2987C24.5831 11.5059 23.9011 11.9267 23.3759 12.5108C22.8507 13.0948 22.5045 13.8176 22.3785 14.5929L19.5227 10.2706C19.4981 10.2329 19.4849 10.1888 19.4849 10.1438C19.4849 10.0987 19.4981 10.0546 19.5227 10.017C19.5394 9.98112 19.5658 9.95072 19.5989 9.92926C19.6321 9.9078 19.6707 9.89615 19.7102 9.89567H24.4956C25.1448 9.89567 25.7674 9.63777 26.2264 9.17871C26.6855 8.71966 26.9434 8.09704 26.9434 7.44783C26.9434 6.79863 26.6855 6.17601 26.2264 5.71695C25.7674 5.2579 25.1448 5 24.4956 5H15.0075C14.667 5.00043 14.3319 5.08404 14.0311 5.24354C13.7304 5.40304 13.4732 5.63361 13.2818 5.91518C13.0845 6.20655 12.9617 6.54189 12.9242 6.89178C12.8868 7.24167 12.9357 7.59541 13.0668 7.92196L15.7131 14.5708C15.8003 14.7824 15.8145 15.017 15.7536 15.2376C15.6927 15.4582 15.5602 15.6523 15.3768 15.7892L9.51637 20.1997C9.34954 20.1834 9.18151 20.1834 9.01468 20.1997C8.60573 20.2513 8.21472 20.3986 7.87346 20.6297C7.53224 20.8418 7.17458 21.0262 6.80391 21.1811C5.90506 21.548 4.95465 21.773 3.9867 21.8482C3.84129 21.8608 3.70682 21.9305 3.61277 22.0422C3.51873 22.1538 3.47278 22.2981 3.485 22.4436C3.49057 22.5161 3.51041 22.5867 3.5434 22.6515C3.57638 22.7163 3.62185 22.7739 3.67719 22.821C3.73253 22.8682 3.79664 22.9039 3.86585 22.9262C3.93505 22.9485 4.00797 22.9568 4.08042 22.9508C5.15996 22.8622 6.21966 22.6093 7.22291 22.201C7.64053 22.0327 8.04424 21.8318 8.43029 21.6001C8.64186 21.4468 8.88809 21.3483 9.14699 21.3134C9.80306 21.2307 10.2055 21.5449 10.7623 21.975C11.3602 22.5147 12.101 22.8708 12.8959 23.0004C13.3635 23.034 13.8329 22.9678 14.273 22.8062C14.713 22.6446 15.1137 22.3913 15.4485 22.0632C15.9867 21.5562 16.6845 21.2521 17.4222 21.2031C18.2371 21.2136 19.0206 21.5191 19.6275 22.0632C20.2746 22.6235 21.0885 22.9548 21.943 23.0059C22.1055 23.0061 22.2677 22.9932 22.4281 22.9673C23.2733 22.8073 24.0457 22.3825 24.6334 21.7544C25.1516 21.2803 25.4438 21.0377 25.9124 21.1094C26.2471 21.1898 26.5491 21.3706 26.778 21.6276C27.2841 22.106 27.8879 22.469 28.5477 22.6917C29.3169 22.9428 30.1323 23.0201 30.9349 22.9177C31.0095 22.9116 31.0821 22.8904 31.1482 22.8554C31.2144 22.8204 31.2727 22.7723 31.3196 22.714C31.3665 22.6557 31.4011 22.5885 31.4212 22.5164C31.4414 22.4443 31.4466 22.3689 31.4366 22.2947C31.4284 22.2221 31.4059 22.1518 31.3703 22.088C31.3347 22.0242 31.2868 21.9681 31.2294 21.9229C31.1719 21.8778 31.1061 21.8445 31.0356 21.8251C30.9652 21.8056 30.8916 21.8003 30.8191 21.8096ZM26.3425 12.2498C26.9376 12.2344 27.5238 12.3969 28.0261 12.7163C28.5285 13.0358 28.9242 13.4978 29.1626 14.0433C29.4011 14.5888 29.4715 15.193 29.3649 15.7787C29.2582 16.3644 28.9794 16.905 28.5639 17.3314C28.1485 17.7578 27.6154 18.0507 27.0327 18.1726C26.4499 18.2945 25.8441 18.2399 25.2926 18.0158C24.7411 17.7916 24.2689 17.4082 23.9364 16.9143C23.6039 16.4205 23.4262 15.8387 23.426 15.2434C23.4209 14.8553 23.4923 14.4701 23.6361 14.1096C23.7799 13.7491 23.9933 13.4205 24.2642 13.1425C24.535 12.8645 24.8579 12.6426 25.2145 12.4894C25.5711 12.3362 25.9544 12.2548 26.3425 12.2498ZM23.9057 20.9605C23.4826 21.4354 22.9183 21.762 22.2958 21.8923C21.4799 22.0191 20.9561 21.6497 20.2946 21.1811C19.4907 20.4909 18.4652 20.1132 17.4057 20.117C16.4345 20.1763 15.5126 20.5653 14.7924 21.2197C14.2081 21.6717 13.7835 22.0025 13.0282 21.9088C12.4313 21.8011 11.8781 21.5235 11.4349 21.1094C11.2269 20.9413 11.0097 20.7849 10.7844 20.6408L16.0384 16.7044C16.4142 16.421 16.6863 16.0219 16.8129 15.5686C16.9394 15.1153 16.9133 14.6329 16.7386 14.1959L14.0923 7.54707C14.0268 7.38863 14.002 7.21629 14.0203 7.04581C14.0386 6.87534 14.0994 6.71217 14.197 6.57124C14.277 6.42492 14.3939 6.3021 14.536 6.21504C14.6783 6.12798 14.8408 6.07971 15.0075 6.07506H24.4845C24.8413 6.07506 25.1835 6.21679 25.4357 6.46906C25.688 6.72134 25.8298 7.0635 25.8298 7.42027C25.8298 7.77704 25.688 8.1192 25.4357 8.37147C25.1835 8.62375 24.8413 8.76547 24.4845 8.76547H19.6991C19.4601 8.7662 19.2257 8.83169 19.0208 8.95498C18.816 9.07826 18.6484 9.25473 18.5359 9.46564C18.4215 9.68095 18.3673 9.92311 18.3789 10.1666C18.3906 10.4101 18.4676 10.646 18.602 10.8494L24.8208 20.2383C24.487 20.4402 24.1796 20.6828 23.9057 20.9605ZM28.443 25.8286C27.8019 25.9085 27.151 25.8483 26.5354 25.6522C26.0169 25.4799 25.5426 25.1957 25.1461 24.8197C24.7642 24.4132 24.2651 24.1357 23.7182 24.0258C22.7093 23.8715 22.0643 24.4448 21.513 24.9465C21.0868 25.4214 20.5214 25.7494 19.8976 25.8838C19.0817 26.0051 18.5634 25.6357 17.9019 25.1726C17.0965 24.4843 16.0724 24.1051 15.013 24.103C14.0411 24.1596 13.1184 24.549 12.3997 25.2057C11.8154 25.6577 11.3853 25.983 10.6355 25.8893C10.0386 25.7816 9.48541 25.504 9.04224 25.0899C8.72714 24.7765 8.34863 24.5342 7.93214 24.3792C7.51564 24.2242 7.0708 24.1601 6.62749 24.1912C6.21854 24.2428 5.82753 24.3901 5.48627 24.6213C5.14632 24.8355 4.78847 25.02 4.41672 25.1726C3.52044 25.5327 2.57386 25.7522 1.61053 25.8231C1.46432 25.8348 1.32873 25.9041 1.23361 26.0158C1.13849 26.1274 1.09163 26.2723 1.10333 26.4185C1.11502 26.5648 1.18433 26.7003 1.29599 26.7955C1.40765 26.8906 1.55253 26.9374 1.69874 26.9258C2.78039 26.8392 3.84221 26.5863 4.84675 26.176C5.27189 26.0087 5.68301 25.8077 6.07618 25.575C6.28581 25.422 6.53021 25.3235 6.78737 25.2883C7.44895 25.2057 7.85141 25.5199 8.40823 25.9499C9.00393 26.4929 9.74569 26.8494 10.5418 26.9754C11.0103 27.0182 11.4826 26.9591 11.9261 26.8021C12.3696 26.645 12.7738 26.3938 13.1109 26.0657C13.6439 25.5641 14.3328 25.2605 15.0626 25.2057C15.8785 25.2161 16.6626 25.5239 17.2678 26.0712C17.9193 26.6368 18.7389 26.972 19.5999 27.025C19.7624 27.0252 19.9246 27.0123 20.0851 26.9864C20.9297 26.8283 21.7021 26.4054 22.2903 25.779C22.8085 25.3049 23.0952 25.0568 23.5694 25.134C23.9041 25.2109 24.2066 25.3901 24.4349 25.6467C24.9405 26.1271 25.5443 26.492 26.2046 26.7163C26.9728 26.9632 27.7859 27.0384 28.5863 26.9368C28.6587 26.9285 28.7288 26.9059 28.7925 26.8705C28.8562 26.8351 28.9123 26.7876 28.9576 26.7305C29.0029 26.6734 29.0365 26.6079 29.0565 26.5379C29.0765 26.4678 29.0826 26.3945 29.0742 26.3221C29.0659 26.2497 29.0434 26.1796 29.008 26.1159C28.9726 26.0522 28.925 25.9961 28.8679 25.9508C28.8108 25.9055 28.7454 25.8719 28.6753 25.8519C28.6052 25.8318 28.5319 25.8258 28.4595 25.8342L28.443 25.8286ZM5.43114 10.0555H9.77549C9.92171 10.0555 10.0619 9.99746 10.1653 9.89407C10.2687 9.79068 10.3268 9.65045 10.3268 9.50423C10.3268 9.35802 10.2687 9.21779 10.1653 9.1144C10.0619 9.011 9.92171 8.95292 9.77549 8.95292H5.43114C5.28492 8.95292 5.14469 9.011 5.0413 9.1144C4.93791 9.21779 4.87982 9.35802 4.87982 9.50423C4.87982 9.65045 4.93791 9.79068 5.0413 9.89407C5.14469 9.99746 5.28492 10.0555 5.43114 10.0555ZM3.28101 12.2222H7.60332C7.74953 12.2222 7.88976 12.1641 7.99315 12.0607C8.09654 11.9573 8.15463 11.8171 8.15463 11.6709C8.15463 11.5247 8.09654 11.3845 7.99315 11.2811C7.88976 11.1777 7.74953 11.1196 7.60332 11.1196H3.28101C3.1348 11.1196 2.99457 11.1777 2.89118 11.2811C2.78779 11.3845 2.7297 11.5247 2.7297 11.6709C2.7297 11.8171 2.78779 11.9573 2.89118 12.0607C2.99457 12.1641 3.1348 12.2222 3.28101 12.2222Z" fill="#535052"/>
<path d="M9.22364 11.6705C9.22364 11.8167 9.28172 11.9569 9.38512 12.0603C9.48851 12.1637 9.62874 12.2218 9.77495 12.2218H11.5447C11.6909 12.2218 11.8311 12.1637 11.9345 12.0603C12.0379 11.9569 12.096 11.8167 12.096 11.6705C12.096 11.5242 12.0379 11.384 11.9345 11.2806C11.8311 11.1772 11.6909 11.1191 11.5447 11.1191H9.77495C9.62874 11.1191 9.48851 11.1772 9.38512 11.2806C9.28172 11.384 9.22364 11.5242 9.22364 11.6705ZM8.75502 14.3829C8.90124 14.3829 9.04147 14.3248 9.14486 14.2214C9.24825 14.1181 9.30634 13.9778 9.30634 13.8316C9.30634 13.6854 9.24825 13.5452 9.14486 13.4418C9.04147 13.3384 8.90124 13.2803 8.75502 13.2803H1.11381C0.967596 13.2803 0.827368 13.3384 0.723976 13.4418C0.620585 13.5452 0.5625 13.6854 0.5625 13.8316C0.5625 13.9778 0.620585 14.1181 0.723976 14.2214C0.827368 14.3248 0.967596 14.3829 1.11381 14.3829H8.75502Z" fill="#535052"/>
</svg>
