<svg width="491" height="853" viewBox="0 0 491 853" fill="none" xmlns="http://www.w3.org/2000/svg">
<path d="M18.752 19.704C6.75387 31.7058 0.0136719 47.9815 0.0136719 64.952C0.0136719 81.9225 6.75387 98.1983 18.752 110.2L335.552 427L18.752 743.8C7.0939 755.871 0.64303 772.037 0.788849 788.818C0.934668 805.598 7.6655 821.65 19.5316 833.516C31.3977 845.383 47.4497 852.113 64.2303 852.259C81.0109 852.405 97.1774 845.954 109.248 834.296L471.296 472.248C483.294 460.246 490.034 443.971 490.034 427C490.034 410.03 483.294 393.754 471.296 381.752L109.248 19.704C97.2462 7.70588 80.9705 0.965698 64 0.965698C47.0295 0.965698 30.7538 7.70588 18.752 19.704Z" fill="black"/>
</svg>
