<svg width="73" height="74" viewBox="0 0 73 74" fill="none" xmlns="http://www.w3.org/2000/svg">
<rect y="0.289062" width="73" height="73" rx="20" fill="#4B9CD3"/>
<path d="M48.8591 22.8828H46.0355V25.7063C46.0355 26.271 45.5649 26.6475 45.0943 26.6475C44.6238 26.6475 44.1532 26.271 44.1532 25.7063V22.8828H29.0943V25.7063C29.0943 26.271 28.6238 26.6475 28.1532 26.6475C27.6826 26.6475 27.212 26.271 27.212 25.7063V22.8828H24.3885C22.9767 22.8828 21.9414 24.1063 21.9414 25.7063V29.0946H52.0591V25.7063C52.0591 24.1063 50.3649 22.8828 48.8591 22.8828ZM21.9414 31.071V48.2946C21.9414 49.9887 22.9767 51.1181 24.4826 51.1181H48.9532C50.4591 51.1181 52.1532 49.8946 52.1532 48.2946V31.071H21.9414ZM30.3179 46.8828H28.0591C27.6826 46.8828 27.3061 46.6005 27.3061 46.1299V43.7769C27.3061 43.4005 27.5885 43.024 28.0591 43.024H30.412C30.7885 43.024 31.1649 43.3063 31.1649 43.7769V46.1299C31.0708 46.6005 30.7885 46.8828 30.3179 46.8828ZM30.3179 38.4122H28.0591C27.6826 38.4122 27.3061 38.1299 27.3061 37.6593V35.3063C27.3061 34.9299 27.5885 34.5534 28.0591 34.5534H30.412C30.7885 34.5534 31.1649 34.8358 31.1649 35.3063V37.6593C31.0708 38.1299 30.7885 38.4122 30.3179 38.4122ZM37.8473 46.8828H35.4943C35.1179 46.8828 34.7414 46.6005 34.7414 46.1299V43.7769C34.7414 43.4005 35.0238 43.024 35.4943 43.024H37.8473C38.2238 43.024 38.6002 43.3063 38.6002 43.7769V46.1299C38.6002 46.6005 38.3179 46.8828 37.8473 46.8828ZM37.8473 38.4122H35.4943C35.1179 38.4122 34.7414 38.1299 34.7414 37.6593V35.3063C34.7414 34.9299 35.0238 34.5534 35.4943 34.5534H37.8473C38.2238 34.5534 38.6002 34.8358 38.6002 35.3063V37.6593C38.6002 38.1299 38.3179 38.4122 37.8473 38.4122ZM45.3767 46.8828H43.0238C42.6473 46.8828 42.2708 46.6005 42.2708 46.1299V43.7769C42.2708 43.4005 42.5532 43.024 43.0238 43.024H45.3767C45.7532 43.024 46.1296 43.3063 46.1296 43.7769V46.1299C46.1296 46.6005 45.8473 46.8828 45.3767 46.8828ZM45.3767 38.4122H43.0238C42.6473 38.4122 42.2708 38.1299 42.2708 37.6593V35.3063C42.2708 34.9299 42.5532 34.5534 43.0238 34.5534H45.3767C45.7532 34.5534 46.1296 34.8358 46.1296 35.3063V37.6593C46.1296 38.1299 45.8473 38.4122 45.3767 38.4122Z" fill="white"/>
</svg>
