<svg width="119" height="47" viewBox="0 0 119 47" fill="none" xmlns="http://www.w3.org/2000/svg">
<rect width="119" height="47" rx="23.5" fill="#635BFF"/>
<g clip-path="url(#clip0_209_88)">
<path fill-rule="evenodd" clip-rule="evenodd" d="M83.1 23.8317C83.1 20.4113 81.4432 17.7123 78.2767 17.7123C75.0967 17.7123 73.1727 20.4113 73.1727 23.805C73.1727 27.8268 75.4441 29.8576 78.7042 29.8576C80.2941 29.8576 81.4967 29.4969 82.4052 28.9891V26.3168C81.4966 26.7711 80.4545 27.0517 79.1317 27.0517C77.8357 27.0517 76.6866 26.5974 76.5397 25.0208H83.0732C83.0733 24.8471 83.1 24.1523 83.1 23.8317ZM76.4997 22.5624C76.4997 21.0525 77.4216 20.4245 78.2633 20.4245C79.0784 20.4245 79.9468 21.0525 79.9468 22.5624H76.4997ZM68.0153 17.7123C66.706 17.7123 65.8641 18.3269 65.3965 18.7545L65.2228 17.9262H62.2834V33.5053L65.6237 32.7971L65.637 29.016C66.118 29.3634 66.8261 29.8577 68.0019 29.8577C70.3935 29.8577 72.5714 27.9337 72.5714 23.6982C72.5581 19.8234 70.3535 17.7123 68.0153 17.7123ZM67.2136 26.9182C66.4253 26.9182 65.9577 26.6376 65.637 26.2902L65.6237 21.3331C65.9711 20.9456 66.452 20.6785 67.2136 20.6785C68.4295 20.6785 69.2712 22.0413 69.2712 23.7916C69.2713 25.582 68.4428 26.9182 67.2136 26.9182ZM57.6872 16.924L61.0408 16.2025V13.4902L57.6872 14.1984V16.924ZM57.6872 17.9394H61.0408V29.6303H57.6872V17.9394ZM54.0931 18.9281L53.8793 17.9394H50.9933V29.6303H54.3336V21.7072C55.1218 20.6784 56.458 20.8655 56.8721 21.0124V17.9394C56.4446 17.7791 54.8813 17.4852 54.0931 18.9281ZM47.4125 15.0401L44.1524 15.7349L44.139 26.4371C44.139 28.4146 45.6221 29.8709 47.5995 29.8709C48.6952 29.8709 49.4968 29.6705 49.9378 29.43V26.7177C49.5102 26.8914 47.3992 27.506 47.3992 25.5286V20.7854H49.9378V17.9395H47.3992L47.4125 15.0401ZM38.3804 21.3331C38.3804 20.812 38.8079 20.6117 39.5161 20.6117C40.5315 20.6117 41.8142 20.919 42.8297 21.4668V18.3269C41.7207 17.886 40.625 17.7123 39.5161 17.7123C36.8038 17.7123 35 19.1286 35 21.4935C35 25.1812 40.0773 24.5933 40.0773 26.1833C40.0773 26.7979 39.5428 26.9983 38.7946 26.9983C37.6856 26.9983 36.2693 26.544 35.147 25.9294V29.1093C36.3896 29.6438 37.6456 29.8709 38.7946 29.8709C41.5737 29.8709 43.4843 28.4947 43.4843 26.1031C43.471 22.1215 38.3804 22.8296 38.3804 21.3331Z" fill="white"/>
</g>
<defs>
<clipPath id="clip0_209_88">
<rect width="48.1" height="37" fill="white" transform="translate(35 5)"/>
</clipPath>
</defs>
</svg>
