<svg width="32" height="32" viewBox="0 0 32 32" fill="none" xmlns="http://www.w3.org/2000/svg">
<path d="M24.4417 9.18113H17.1051L23.4544 1.81072C23.506 1.75295 23.5455 1.68548 23.5707 1.61226C23.5959 1.53904 23.6062 1.46154 23.6011 1.38427C23.596 1.30701 23.5756 1.23154 23.541 1.16227C23.5064 1.09299 23.4583 1.03131 23.3996 0.980814C23.3409 0.93032 23.2727 0.89203 23.1991 0.86818C23.1254 0.84433 23.0477 0.835398 22.9706 0.841906C22.8934 0.848414 22.8183 0.870231 22.7497 0.906084C22.6811 0.941936 22.6203 0.991105 22.5708 1.05072L15.9977 8.68106L9.42349 1.05072C9.32179 0.936759 9.17943 0.867274 9.02702 0.857212C8.87462 0.84715 8.72436 0.897316 8.60856 0.996916C8.49277 1.09652 8.4207 1.23759 8.40787 1.38979C8.39503 1.54198 8.44245 1.69313 8.53992 1.81072L14.8892 9.18113H7.55378C6.34559 9.18236 5.18722 9.66278 4.33278 10.517C3.47835 11.3712 2.99764 12.5295 2.99609 13.7376V26.5971C2.99733 27.8055 3.47791 28.964 4.33237 29.8185C5.18684 30.673 6.34539 31.1536 7.55378 31.1548H24.4417C25.6499 31.1536 26.8083 30.6731 27.6627 29.8189C28.5171 28.9647 28.9979 27.8065 28.9994 26.5983V13.7388C28.9982 12.5304 28.5176 11.3719 27.6631 10.5174C26.8087 9.66294 25.6501 9.18236 24.4417 9.18113ZM27.8338 26.5983C27.8325 27.4974 27.4747 28.3593 26.8388 28.995C26.2029 29.6307 25.3409 29.9882 24.4417 29.9891H7.55378C6.65464 29.9882 5.79258 29.6307 5.15668 28.995C4.52079 28.3593 4.16298 27.4974 4.16174 26.5983V13.7388C4.16298 12.8397 4.52079 11.9777 5.15668 11.3421C5.79258 10.7064 6.65464 10.3489 7.55378 10.3479H24.4417C25.3409 10.3489 26.2029 10.7064 26.8388 11.3421C27.4747 11.9777 27.8325 12.8397 27.8338 13.7388V26.5983Z" fill="#535052"/>
<path d="M24.2195 11.5195H7.77914C6.43165 11.5195 5.33594 12.6152 5.33594 13.9627V24.0421C5.33594 25.3884 6.43165 26.4841 7.77914 26.4841H24.2195C25.567 26.4841 26.6627 25.3884 26.6627 24.0421V13.9627C26.6617 13.315 26.404 12.6941 25.946 12.2362C25.4881 11.7782 24.8672 11.5205 24.2195 11.5195ZM25.4958 24.0421C25.4958 24.7462 24.9224 25.3185 24.2183 25.3185H7.77914C7.44061 25.3182 7.11601 25.1836 6.87653 24.9444C6.63704 24.7051 6.5022 24.3806 6.50159 24.0421V13.9627C6.50159 13.2587 7.07509 12.6852 7.77914 12.6852H24.2195C24.9235 12.6852 25.497 13.2587 25.497 13.9627V24.0421H25.4958ZM18.7467 27.6172H8.38994C8.23536 27.6172 8.08712 27.6786 7.97782 27.7879C7.86852 27.8972 7.80711 28.0454 7.80711 28.2C7.80711 28.3546 7.86852 28.5028 7.97782 28.6121C8.08712 28.7214 8.23536 28.7828 8.38994 28.7828H18.7467C18.9013 28.7828 19.0496 28.7214 19.1589 28.6121C19.2682 28.5028 19.3296 28.3546 19.3296 28.2C19.3296 28.0454 19.2682 27.8972 19.1589 27.7879C19.0496 27.6786 18.9013 27.6172 18.7467 27.6172ZM23.6087 27.6172H21.0198C20.8652 27.6172 20.7169 27.6786 20.6076 27.7879C20.4983 27.8972 20.4369 28.0454 20.4369 28.2C20.4369 28.3546 20.4983 28.5028 20.6076 28.6121C20.7169 28.7214 20.8652 28.7828 21.0198 28.7828H23.6087C23.7632 28.7828 23.9115 28.7214 24.0208 28.6121C24.1301 28.5028 24.1915 28.3546 24.1915 28.2C24.1915 28.0454 24.1301 27.8972 24.0208 27.7879C23.9115 27.6786 23.7632 27.6172 23.6087 27.6172Z" fill="#535052"/>
</svg>
