<svg width="32" height="32" viewBox="0 0 32 32" fill="none" xmlns="http://www.w3.org/2000/svg">
<g clip-path="url(#clip0_1458_24888)">
<path d="M12.4837 27.5381C9.39724 26.5784 7.32347 23.7599 7.32347 20.5244C7.32347 18.943 7.81856 17.4363 8.75528 16.1672C8.77664 16.1383 8.79594 16.1066 8.81205 16.0744C8.96682 15.7649 8.84112 15.389 8.53158 15.2343C8.25142 15.094 7.91631 15.1841 7.74048 15.4318C6.64786 16.9161 6.07031 18.6769 6.07031 20.5244C6.07031 22.3954 6.66108 24.1742 7.7787 25.6686C8.85898 27.113 10.3977 28.202 12.1117 28.7348C12.1719 28.7537 12.2347 28.7633 12.2979 28.7633C12.565 28.7633 12.8126 28.591 12.896 28.3225C12.9988 27.992 12.8142 27.6409 12.4837 27.5381Z" fill="#535052"/>
<path d="M28.5465 14.6426C28.5465 13.4499 28.1748 12.3135 27.4714 11.3552L23.5049 5.46684C23.4475 5.3817 23.3701 5.31195 23.2795 5.26373C23.1889 5.2155 23.0878 5.19028 22.9851 5.19028C22.8825 5.19028 22.7814 5.2155 22.6908 5.26373C22.6002 5.31195 22.5228 5.3817 22.4654 5.46684L20.794 7.94803L15.6261 0.276557C15.5688 0.191417 15.4914 0.121668 15.4008 0.0734444C15.3102 0.0252208 15.2091 0 15.1065 0C15.0038 0 14.9027 0.0252208 14.8121 0.0734444C14.7215 0.121668 14.6441 0.191417 14.5868 0.276557L5.7155 13.4456C4.23532 15.4571 3.45312 17.843 3.45312 20.3467C3.45312 26.7723 8.68081 32 15.1065 32C21.5321 32 26.7598 26.7723 26.7598 20.3467C26.7598 19.8338 26.7255 19.3199 26.6589 18.814C27.8155 17.7941 28.5465 16.3022 28.5465 14.6426ZM22.9851 6.93849L26.4318 12.055C26.4387 12.0657 26.446 12.0761 26.4536 12.0864C27.0029 12.8304 27.2933 13.7143 27.2933 14.6425C27.2933 17.018 25.3607 18.9506 22.9851 18.9506C20.6097 18.9506 18.6771 17.018 18.6771 14.6425C18.6771 13.7143 18.9674 12.8304 19.5168 12.0864C19.5241 12.0766 19.531 12.0665 19.5377 12.0562L21.3125 9.42163C21.3157 9.4168 21.3191 9.41204 21.3222 9.40709L22.9851 6.93849ZM25.5065 20.3467C25.5065 26.0814 20.841 30.7468 15.1064 30.7468C9.37171 30.7468 4.70628 26.0814 4.70628 20.3467C4.70628 18.1069 5.40746 15.973 6.73412 14.1758C6.7417 14.1656 6.74903 14.1549 6.75611 14.1439L15.1065 1.74815L20.0386 9.0696L18.4989 11.3552C17.7956 12.3135 17.4238 13.4499 17.4238 14.6426C17.4238 17.7091 19.9186 20.2039 22.9851 20.2039C23.8818 20.2039 24.7294 19.9903 25.4802 19.6118C25.4973 19.8561 25.5065 20.1015 25.5065 20.3467Z" fill="#535052"/>
</g>
<defs>
<clipPath id="clip0_1458_24888">
<rect width="32" height="32" fill="white"/>
</clipPath>
</defs>
</svg>
