<svg width="32" height="32" viewBox="0 0 32 32" fill="none" xmlns="http://www.w3.org/2000/svg">
<path d="M16.0013 17.6741C14.1378 17.6741 12.3847 18.3992 11.0652 19.7169C10.7402 20.0414 10.7398 20.5682 11.0643 20.8936C11.3892 21.2181 11.9155 21.219 12.2409 20.8945C13.2464 19.8909 14.5822 19.3375 16.0013 19.3375C17.4187 19.3375 18.7545 19.8904 19.7626 20.895C19.8397 20.972 19.9313 21.0331 20.032 21.0747C20.1328 21.1163 20.2408 21.1376 20.3498 21.1375C20.5634 21.1375 20.7766 21.0564 20.9393 20.8928C21.2638 20.5674 21.2628 20.0405 20.937 19.7165C19.6143 18.3992 17.8617 17.6741 16.0013 17.6741ZM16.0005 12.2363C12.6588 12.2363 9.5167 13.5374 7.15387 15.8998C6.82892 16.2243 6.82892 16.7511 7.15387 17.0765C7.47881 17.4015 8.00562 17.4015 8.33056 17.0765C10.3793 15.0282 13.1036 13.8998 16.0009 13.8998C18.8969 13.8998 21.6208 15.0282 23.6704 17.0765C23.7477 17.1538 23.8394 17.215 23.9404 17.2568C24.0414 17.2985 24.1496 17.32 24.2589 17.3199C24.4721 17.3199 24.6848 17.2388 24.8466 17.0761C25.1716 16.7516 25.1716 16.2248 24.8462 15.8998C22.4824 13.5374 19.3412 12.2363 16.0005 12.2363Z" fill="#535052"/>
<path d="M28.7564 12.0809C25.3511 8.67298 20.821 6.79688 16.0007 6.79688C11.1804 6.79688 6.64984 8.67298 3.24371 12.0805C2.91876 12.4054 2.91876 12.9322 3.24371 13.2572C3.3209 13.3345 3.41258 13.3957 3.51351 13.4375C3.61444 13.4793 3.72263 13.5007 3.83186 13.5005C4.04503 13.5005 4.25816 13.4194 4.42041 13.2572C7.51241 10.1643 11.6248 8.46031 16.0007 8.46031C20.3767 8.46031 24.4886 10.1643 27.5797 13.2568C27.9038 13.5826 28.431 13.5822 28.756 13.2572C29.0813 12.9327 29.0813 12.4058 28.7564 12.0809ZM15.2058 23.2845C14.994 23.4963 14.8768 23.7843 14.8768 24.0822C14.8768 24.38 14.9939 24.673 15.2058 24.8803C15.4131 25.0916 15.706 25.2088 16.0034 25.2088C16.3009 25.2088 16.5893 25.0921 16.7966 24.8803C17.008 24.673 17.1301 24.38 17.1301 24.0822C17.1301 23.7843 17.0084 23.4963 16.7966 23.2845C16.3775 22.8649 15.6249 22.8699 15.2058 23.2845Z" fill="#535052"/>
</svg>
