<svg width="32" height="32" viewBox="0 0 32 32" fill="none" xmlns="http://www.w3.org/2000/svg">
<path d="M27.6508 12.3H23.7508L23.1008 10H26.2508C26.8008 10 27.2508 9.55 27.2508 9V2.5C27.2508 1.95 26.8008 1.5 26.2508 1.5H16.5008C15.9508 1.5 15.5008 1.95 15.5008 2.5V9C15.5008 9.55 15.9508 10 16.5008 10H19.6508L19.0008 12.3H13.0008V7.9C13.0008 7.3 12.5008 6.85 11.9508 6.85H5.80078C5.20078 6.85 4.75078 7.35 4.75078 7.9V12.3H4.35078C3.75078 12.3 3.30078 12.8 3.30078 13.35V15.1C3.30078 15.7 3.80078 16.15 4.35078 16.15H4.70078V29.3C4.70078 29.95 5.25078 30.5 5.90078 30.5H7.10078C7.75078 30.5 8.30078 29.95 8.30078 29.3V27.8H14.1508C14.8008 27.8 15.3008 27.3 15.3008 26.65V16.15H23.6508V29.3C23.6508 29.95 24.2008 30.5 24.8508 30.5H26.0508C26.7008 30.5 27.2508 29.95 27.2508 29.3V16.15H27.6008C28.2008 16.15 28.6508 15.65 28.6508 15.1V13.35C28.7008 12.8 28.2008 12.3 27.6508 12.3ZM16.5008 9V2.5H26.2508V9H16.5008ZM20.7008 10H22.0508L22.7008 12.3H20.1008L20.7008 10ZM5.80078 7.85H12.0008C12.0508 7.85 12.0508 7.9 12.0508 7.9V9.55H5.75078V7.9C5.75078 7.9 5.75078 7.85 5.80078 7.85ZM5.75078 10.6H12.0508V12.3H5.75078V10.6ZM7.10078 29.5H5.90078C5.80078 29.5 5.70078 29.4 5.70078 29.3V16.15H7.30078V29.3C7.30078 29.4 7.25078 29.5 7.10078 29.5ZM8.30078 20.05H14.3008V22.95H8.30078V20.05ZM14.1508 26.8H8.30078V23.9H14.3008V26.6C14.3508 26.75 14.2508 26.8 14.1508 26.8ZM14.3508 19.05H8.35078V16.15H14.3508V19.05ZM26.2508 29.3C26.2508 29.4 26.1508 29.5 26.0508 29.5H24.8508C24.7508 29.5 24.6508 29.4 24.6508 29.3V16.15H26.2508V29.3ZM27.7008 15.1C27.7008 15.15 27.6508 15.15 27.6508 15.15H4.35078C4.30078 15.15 4.30078 15.1 4.30078 15.1V13.35C4.30078 13.3 4.35078 13.3 4.35078 13.3H27.6008C27.6508 13.3 27.6508 13.35 27.6508 13.35V15.1H27.7008Z" fill="#535052"/>
<path d="M12.0516 20.9996H10.6016C10.3016 20.9996 10.1016 21.1996 10.1016 21.4996C10.1016 21.7996 10.3016 21.9996 10.6016 21.9996H12.0516C12.3516 21.9996 12.5516 21.7996 12.5516 21.4996C12.5516 21.1996 12.3516 20.9996 12.0516 20.9996ZM12.0516 24.8996H10.6016C10.3016 24.8996 10.1016 25.0996 10.1016 25.3996C10.1016 25.6996 10.3016 25.8996 10.6016 25.8996H12.0516C12.3516 25.8996 12.5516 25.6996 12.5516 25.3996C12.5516 25.0996 12.3516 24.8996 12.0516 24.8996ZM10.6016 18.0996H12.0516C12.3516 18.0996 12.5516 17.8996 12.5516 17.5996C12.5516 17.2996 12.3516 17.0996 12.0516 17.0996H10.6016C10.3016 17.0996 10.1016 17.2996 10.1016 17.5996C10.1016 17.8996 10.3516 18.0996 10.6016 18.0996Z" fill="#535052"/>
</svg>
